<?xml version="1.0" encoding="UTF-8"?>
<!DOCTYPE svg PUBLIC "-//W3C//DTD SVG 1.1//EN" "http://www.w3.org/Graphics/SVG/1.1/DTD/svg11.dtd">
<!-- Creator: CorelDRAW -->
<svg xmlns="http://www.w3.org/2000/svg" xml:space="preserve" width="256px" height="256px" version="1.1" style="shape-rendering:geometricPrecision; text-rendering:geometricPrecision; image-rendering:optimizeQuality; fill-rule:evenodd; clip-rule:evenodd"
viewBox="0 0 256 256"
 xmlns:xlink="http://www.w3.org/1999/xlink"
 xmlns:xodm="http://www.corel.com/coreldraw/odm/2003">
 <defs>
  <style type="text/css">
   <![CDATA[
    .str0 {stroke:black;stroke-width:3;stroke-miterlimit:22.9256}
    .fil2 {fill:none}
    .fil4 {fill:#1670C6}
    .fil5 {fill:#CA336E}
    .fil3 {fill:#F9742C}
    .fil0 {fill:#FCDC09}
    .fil6 {fill:black;fill-rule:nonzero}
    .fil1 {fill:#FCDC09;fill-opacity:0.600000}
   ]]>
  </style>
 </defs>
 <g id="Capa_x0020_1">
  <metadata id="CorelCorpID_0Corel-Layer"/>
  <ellipse class="fil0 str0" cx="128" cy="33.935" rx="97.5" ry="19"/>
  <ellipse class="fil0 str0" cx="128" cy="225.27" rx="97.5" ry="19"/>
  <g>
   <path class="fil1" d="M225.5 225.27c0,10.493 -43.652,19 -97.5,19 -53.848,0 -97.5,-8.507 -97.5,-19l0 -191.335c0,10.493 43.652,19 97.5,19 53.848,0 97.5,-8.507 97.5,-19l0 191.335z"/>
   <path id="_1" class="fil2 str0" d="M225.5 225.27c0,10.493 -43.652,19 -97.5,19 -53.848,0 -97.5,-8.507 -97.5,-19l0 -191.335c0,10.493 43.652,19 97.5,19 53.848,0 97.5,-8.507 97.5,-19l0 191.335z"/>
  </g>
  <g id="_1824831338752">
   <path class="fil3" d="M112.236 148.665l0.046 -17.349 0.035 -50.338c7.156,0.178 13.082,-0.395 19.214,4.032 9.003,6.503 8.423,10.8 10.054,13.205 0.377,-1.678 -0.551,-9.969 -0.812,-12.063 -0.632,-5.077 -1.872,-10.313 -4.821,-14.467 -1.057,-1.488 -1.625,-2.14 -3.068,-3.356 -2.818,-2.372 -6.338,-2.954 -8.822,-4.027 -5.853,-0.495 -19.119,-0.184 -26.213,-0.196 -9.449,-0.017 -7.914,-1.085 -7.888,18.38l-0.004 61.95c-0.015,3.347 1.254,4.174 4.557,4.18 5.846,0.012 11.904,-0.15 17.722,0.049z"/>
   <path class="fil4" d="M133.065 126.756c-1.244,0.577 -2.546,1.494 -4.086,2.165 -1.618,0.706 -3.012,1.159 -4.844,1.586 -3.565,0.832 -8.113,0.99 -11.853,0.809l-0.046 17.349c8.985,0.039 15.651,0.248 24.069,-2.178 6.872,-1.981 13.056,-5.47 17.284,-9.158l3.179 -3.253c8.551,-10.878 11.075,-20.991 9.335,-35.869 -1.794,0.99 -3.164,3.064 -4.068,3.84 -0.715,0.614 -1.257,1.158 -1.997,1.786 -1.113,0.943 -1.149,0.833 -1.867,1.901 -0.828,1.229 -3.046,2.502 -4.08,3.699 -2.132,2.47 -3.224,2.901 -3.864,3.682 -1.788,2.181 -1.294,0.835 -3.035,2.951l-4.062 3.501c-0.374,0.298 -0.546,0.502 -0.931,0.83 -1.665,1.426 -7.306,5.772 -9.134,6.359z"/>
   <path class="fil5" d="M141.585 98.215c0.021,2.377 0.881,3.289 0.573,8.922 -0.283,5.167 -1.319,10.53 -4.368,14.64 -2.588,3.489 -3.844,3.71 -4.725,4.979 1.828,-0.587 7.469,-4.933 9.134,-6.359 0.385,-0.328 0.557,-0.532 0.931,-0.83l4.062 -3.501c1.741,-2.116 1.247,-0.77 3.035,-2.951 0.64,-0.781 1.732,-1.212 3.864,-3.682 1.034,-1.197 3.252,-2.47 4.08,-3.699 0.718,-1.068 0.754,-0.958 1.867,-1.901 0.74,-0.628 1.282,-1.172 1.997,-1.786 0.904,-0.776 2.274,-2.85 4.068,-3.84 -1.181,-9.713 -6.125,-18.476 -13.832,-24.2 -7.531,-5.594 -16.253,-8.893 -28.209,-9.705 2.484,1.073 6.004,1.655 8.822,4.027 1.443,1.216 2.011,1.868 3.068,3.356 2.949,4.154 4.189,9.39 4.821,14.467 0.261,2.094 1.189,10.385 0.812,12.063z"/>
  </g>
  <path class="fil6" d="M71.869 186.416l-1.258 -3.307 -10.715 0 -1.258 3.375c-0.491,1.319 -0.908,2.209 -1.258,2.669 -0.344,0.461 -0.915,0.694 -1.706,0.694 -0.669,0 -1.264,-0.245 -1.78,-0.736 -0.515,-0.491 -0.773,-1.05 -0.773,-1.67 0,-0.362 0.062,-0.736 0.178,-1.117 0.123,-0.386 0.319,-0.914 0.595,-1.601l6.738 -17.11c0.197,-0.491 0.424,-1.08 0.694,-1.767 0.27,-0.694 0.559,-1.264 0.865,-1.719 0.307,-0.453 0.706,-0.822 1.203,-1.104 0.497,-0.282 1.111,-0.423 1.841,-0.423 0.749,0 1.369,0.141 1.866,0.423 0.497,0.282 0.895,0.644 1.202,1.086 0.307,0.442 0.565,0.921 0.774,1.43 0.208,0.51 0.479,1.191 0.798,2.038l6.885 17.005c0.54,1.294 0.81,2.233 0.81,2.822 0,0.608 -0.252,1.172 -0.761,1.682 -0.509,0.509 -1.129,0.761 -1.847,0.761 -0.417,0 -0.78,-0.074 -1.08,-0.227 -0.295,-0.147 -0.547,-0.35 -0.755,-0.608 -0.202,-0.257 -0.417,-0.656 -0.651,-1.184 -0.239,-0.534 -0.435,-1.007 -0.607,-1.412zm-10.568 -7.321l7.874 0 -3.97 -10.862 -3.904 10.862z"/>
  <path id="_1_0" class="fil6" d="M85.677 165.404l0 7.499c0.92,-0.963 1.865,-1.7 2.823,-2.209 0.957,-0.509 2.148,-0.767 3.559,-0.767 1.632,0 3.062,0.386 4.29,1.16 1.227,0.773 2.178,1.896 2.853,3.363 0.681,1.466 1.019,3.209 1.019,5.222 0,1.485 -0.19,2.847 -0.565,4.087 -0.38,1.24 -0.926,2.32 -1.644,3.228 -0.718,0.914 -1.596,1.614 -2.621,2.111 -1.025,0.497 -2.154,0.749 -3.387,0.749 -0.755,0 -1.467,-0.092 -2.13,-0.27 -0.663,-0.178 -1.233,-0.417 -1.7,-0.712 -0.466,-0.289 -0.865,-0.595 -1.196,-0.908 -0.326,-0.307 -0.761,-0.774 -1.301,-1.4l0 0.485c0,0.921 -0.221,1.62 -0.663,2.093 -0.448,0.473 -1.013,0.712 -1.694,0.712 -0.693,0 -1.246,-0.239 -1.663,-0.712 -0.411,-0.473 -0.62,-1.172 -0.62,-2.093l0 -21.423c0,-0.994 0.203,-1.749 0.602,-2.258 0.405,-0.51 0.963,-0.761 1.681,-0.761 0.755,0 1.338,0.245 1.743,0.73 0.411,0.484 0.614,1.178 0.614,2.074zm0.233 14.581c0,1.952 0.448,3.449 1.338,4.498 0.896,1.05 2.062,1.571 3.51,1.571 1.234,0 2.301,-0.534 3.191,-1.607 0.89,-1.075 1.338,-2.609 1.338,-4.609 0,-1.289 -0.184,-2.406 -0.559,-3.339 -0.368,-0.932 -0.895,-1.657 -1.577,-2.166 -0.687,-0.509 -1.479,-0.761 -2.393,-0.761 -0.933,0 -1.761,0.252 -2.491,0.761 -0.731,0.509 -1.308,1.246 -1.725,2.209 -0.423,0.964 -0.632,2.111 -0.632,3.443z"/>
  <path id="_2" class="fil6" d="M119.957 183.44c0,1.35 -0.332,2.51 -0.988,3.474 -0.657,0.963 -1.633,1.693 -2.921,2.19 -1.289,0.498 -2.854,0.743 -4.701,0.743 -1.762,0 -3.271,-0.27 -4.529,-0.81 -1.258,-0.534 -2.185,-1.209 -2.786,-2.019 -0.596,-0.804 -0.896,-1.614 -0.896,-2.43 0,-0.541 0.19,-1.001 0.577,-1.381 0.38,-0.387 0.865,-0.577 1.454,-0.577 0.516,0 0.908,0.129 1.185,0.38 0.275,0.252 0.539,0.602 0.791,1.062 0.503,0.872 1.105,1.528 1.804,1.958 0.7,0.436 1.657,0.65 2.866,0.65 0.982,0 1.786,-0.221 2.412,-0.656 0.632,-0.436 0.945,-0.939 0.945,-1.504 0,-0.865 -0.325,-1.491 -0.976,-1.89 -0.656,-0.393 -1.731,-0.773 -3.228,-1.135 -1.687,-0.417 -3.062,-0.859 -4.123,-1.32 -1.056,-0.46 -1.903,-1.074 -2.541,-1.829 -0.632,-0.754 -0.951,-1.687 -0.951,-2.785 0,-0.988 0.294,-1.915 0.877,-2.793 0.589,-0.877 1.455,-1.571 2.602,-2.093 1.141,-0.521 2.522,-0.785 4.142,-0.785 1.271,0 2.412,0.129 3.419,0.393 1.012,0.264 1.859,0.62 2.534,1.061 0.681,0.448 1.197,0.939 1.546,1.479 0.356,0.54 0.534,1.062 0.534,1.584 0,0.558 -0.19,1.025 -0.57,1.38 -0.375,0.362 -0.915,0.54 -1.608,0.54 -0.503,0 -0.933,-0.141 -1.289,-0.429 -0.349,-0.288 -0.755,-0.718 -1.215,-1.295 -0.368,-0.479 -0.804,-0.865 -1.307,-1.154 -0.503,-0.288 -1.184,-0.429 -2.05,-0.429 -0.883,0 -1.62,0.19 -2.209,0.564 -0.583,0.381 -0.877,0.853 -0.877,1.418 0,0.515 0.214,0.939 0.644,1.264 0.435,0.332 1.013,0.608 1.743,0.823 0.73,0.214 1.736,0.478 3.019,0.791 1.522,0.368 2.768,0.816 3.731,1.332 0.963,0.515 1.694,1.123 2.191,1.828 0.497,0.7 0.749,1.498 0.749,2.4z"/>
  <path id="_3" class="fil6" d="M124.387 170.332l0.54 0 0 -2.952c0,-0.792 0.019,-1.411 0.062,-1.859 0.043,-0.454 0.159,-0.841 0.349,-1.16 0.191,-0.338 0.467,-0.614 0.829,-0.822 0.356,-0.209 0.755,-0.313 1.203,-0.313 0.619,0 1.178,0.233 1.681,0.699 0.338,0.313 0.547,0.693 0.638,1.148 0.093,0.448 0.135,1.086 0.135,1.914l0 3.345 1.799 0c0.693,0 1.227,0.165 1.589,0.491 0.368,0.331 0.552,0.755 0.552,1.264 0,0.663 -0.264,1.123 -0.785,1.387 -0.522,0.264 -1.264,0.393 -2.24,0.393l-0.915 0 0 9.021c0,0.767 0.025,1.362 0.08,1.773 0.056,0.411 0.197,0.749 0.43,1.007 0.239,0.258 0.62,0.386 1.147,0.386 0.283,0 0.675,-0.049 1.166,-0.153 0.491,-0.098 0.878,-0.153 1.148,-0.153 0.399,0 0.755,0.159 1.074,0.478 0.319,0.319 0.472,0.712 0.472,1.178 0,0.792 -0.429,1.394 -1.288,1.811 -0.866,0.423 -2.105,0.632 -3.725,0.632 -1.534,0 -2.694,-0.258 -3.48,-0.773 -0.791,-0.516 -1.307,-1.228 -1.552,-2.142 -0.246,-0.908 -0.369,-2.123 -0.369,-3.645l0 -9.42 -0.644 0c-0.712,0 -1.252,-0.166 -1.62,-0.504 -0.375,-0.331 -0.559,-0.76 -0.559,-1.276 0,-0.509 0.197,-0.933 0.583,-1.264 0.393,-0.326 0.958,-0.491 1.7,-0.491z"/>
  <path id="_4" class="fil6" d="M142.012 182.765l0 4.099c0,0.994 -0.233,1.737 -0.699,2.234 -0.467,0.497 -1.056,0.749 -1.774,0.749 -0.706,0 -1.289,-0.252 -1.743,-0.755 -0.454,-0.503 -0.681,-1.246 -0.681,-2.228l0 -13.666c0,-2.203 0.798,-3.308 2.387,-3.308 0.81,0 1.399,0.258 1.755,0.773 0.362,0.516 0.559,1.283 0.595,2.289 0.584,-1.006 1.185,-1.773 1.805,-2.289 0.62,-0.515 1.442,-0.773 2.473,-0.773 1.031,0 2.031,0.258 3.001,0.773 0.969,0.516 1.454,1.203 1.454,2.056 0,0.601 -0.202,1.092 -0.619,1.485 -0.412,0.393 -0.86,0.583 -1.338,0.583 -0.178,0 -0.614,-0.11 -1.301,-0.331 -0.694,-0.221 -1.301,-0.332 -1.829,-0.332 -0.718,0 -1.301,0.191 -1.762,0.565 -0.453,0.381 -0.809,0.939 -1.061,1.681 -0.252,0.743 -0.424,1.627 -0.522,2.651 -0.092,1.025 -0.141,2.271 -0.141,3.744z"/>
  <path id="_5" class="fil6" d="M164.767 187.092c-1.19,0.92 -2.338,1.607 -3.442,2.068 -1.111,0.46 -2.357,0.687 -3.732,0.687 -1.258,0 -2.369,-0.252 -3.32,-0.749 -0.951,-0.497 -1.687,-1.166 -2.203,-2.019 -0.515,-0.853 -0.773,-1.773 -0.773,-2.768 0,-1.343 0.423,-2.485 1.276,-3.43 0.853,-0.951 2.025,-1.583 3.517,-1.909 0.307,-0.073 1.08,-0.233 2.313,-0.484 1.234,-0.252 2.296,-0.479 3.173,-0.694 0.877,-0.208 1.835,-0.46 2.866,-0.761 -0.061,-1.294 -0.319,-2.246 -0.779,-2.847 -0.467,-0.608 -1.418,-0.908 -2.873,-0.908 -1.245,0 -2.184,0.171 -2.81,0.521 -0.632,0.344 -1.172,0.865 -1.62,1.565 -0.448,0.694 -0.767,1.147 -0.951,1.375 -0.191,0.221 -0.589,0.331 -1.197,0.331 -0.552,0 -1.031,-0.178 -1.43,-0.534 -0.399,-0.35 -0.601,-0.804 -0.601,-1.356 0,-0.865 0.307,-1.706 0.914,-2.522 0.614,-0.817 1.565,-1.486 2.86,-2.013 1.295,-0.528 2.909,-0.792 4.842,-0.792 2.154,0 3.854,0.258 5.087,0.767 1.233,0.51 2.105,1.314 2.614,2.418 0.51,1.105 0.767,2.565 0.767,4.388 0,1.154 -0.006,2.13 -0.012,2.933 -0.006,0.804 -0.012,1.7 -0.024,2.682 0,0.921 0.153,1.884 0.46,2.885 0.307,0.994 0.454,1.638 0.454,1.926 0,0.504 -0.233,0.964 -0.706,1.375 -0.479,0.411 -1.012,0.62 -1.614,0.62 -0.503,0 -1,-0.233 -1.491,-0.706 -0.491,-0.472 -1.012,-1.154 -1.565,-2.049zm-0.325 -7.113c-0.718,0.264 -1.761,0.546 -3.136,0.834 -1.369,0.295 -2.319,0.516 -2.847,0.651 -0.528,0.141 -1.032,0.411 -1.51,0.81 -0.479,0.405 -0.718,0.964 -0.718,1.688 0,0.742 0.282,1.374 0.847,1.896 0.558,0.521 1.295,0.785 2.209,0.785 0.97,0 1.866,-0.214 2.682,-0.638 0.822,-0.429 1.424,-0.976 1.81,-1.651 0.442,-0.742 0.663,-1.97 0.663,-3.676l0 -0.699z"/>
  <path id="_6" class="fil6" d="M191.849 183.778c0,0.607 -0.185,1.264 -0.553,1.957 -0.362,0.694 -0.92,1.357 -1.669,1.982 -0.749,0.626 -1.694,1.136 -2.835,1.516 -1.135,0.387 -2.418,0.577 -3.848,0.577 -3.031,0 -5.4,-0.884 -7.1,-2.651 -1.706,-1.768 -2.559,-4.136 -2.559,-7.113 0,-2.013 0.393,-3.792 1.172,-5.339 0.779,-1.546 1.909,-2.743 3.381,-3.584 1.479,-0.846 3.241,-1.27 5.29,-1.27 1.271,0 2.437,0.185 3.498,0.559 1.056,0.374 1.958,0.853 2.694,1.442 0.737,0.589 1.301,1.215 1.688,1.878 0.393,0.669 0.589,1.288 0.589,1.865 0,0.589 -0.221,1.086 -0.657,1.498 -0.442,0.405 -0.969,0.607 -1.595,0.607 -0.405,0 -0.743,-0.104 -1.013,-0.313 -0.27,-0.209 -0.57,-0.546 -0.908,-1.012 -0.601,-0.909 -1.227,-1.596 -1.878,-2.05 -0.656,-0.454 -1.485,-0.681 -2.491,-0.681 -1.449,0 -2.621,0.564 -3.504,1.699 -0.89,1.13 -1.332,2.676 -1.332,4.64 0,0.921 0.116,1.768 0.344,2.541 0.227,0.773 0.552,1.436 0.988,1.976 0.429,0.546 0.951,0.957 1.564,1.239 0.608,0.283 1.283,0.424 2.013,0.424 0.982,0 1.823,-0.227 2.522,-0.681 0.706,-0.455 1.326,-1.154 1.866,-2.087 0.295,-0.552 0.62,-0.982 0.97,-1.289 0.343,-0.313 0.773,-0.472 1.276,-0.472 0.601,0 1.098,0.233 1.492,0.687 0.392,0.454 0.595,0.939 0.595,1.455z"/>
  <path id="_7" class="fil6" d="M196.39 170.332l0.54 0 0 -2.952c0,-0.792 0.018,-1.411 0.061,-1.859 0.043,-0.454 0.16,-0.841 0.35,-1.16 0.19,-0.338 0.466,-0.614 0.828,-0.822 0.356,-0.209 0.755,-0.313 1.203,-0.313 0.62,0 1.178,0.233 1.681,0.699 0.338,0.313 0.547,0.693 0.639,1.148 0.092,0.448 0.135,1.086 0.135,1.914l0 3.345 1.798 0c0.693,0 1.227,0.165 1.589,0.491 0.369,0.331 0.553,0.755 0.553,1.264 0,0.663 -0.264,1.123 -0.786,1.387 -0.521,0.264 -1.264,0.393 -2.24,0.393l-0.914 0 0 9.021c0,0.767 0.024,1.362 0.08,1.773 0.055,0.411 0.196,0.749 0.429,1.007 0.24,0.258 0.62,0.386 1.148,0.386 0.282,0 0.675,-0.049 1.166,-0.153 0.491,-0.098 0.877,-0.153 1.148,-0.153 0.398,0 0.754,0.159 1.073,0.478 0.319,0.319 0.473,0.712 0.473,1.178 0,0.792 -0.43,1.394 -1.289,1.811 -0.865,0.423 -2.105,0.632 -3.725,0.632 -1.534,0 -2.694,-0.258 -3.48,-0.773 -0.791,-0.516 -1.307,-1.228 -1.552,-2.142 -0.246,-0.908 -0.368,-2.123 -0.368,-3.645l0 -9.42 -0.645 0c-0.711,0 -1.252,-0.166 -1.62,-0.504 -0.374,-0.331 -0.558,-0.76 -0.558,-1.276 0,-0.509 0.196,-0.933 0.583,-1.264 0.393,-0.326 0.957,-0.491 1.7,-0.491z"/>
  <path id="_8" class="fil6" d="M50.866 196.195l6.959 0c1.81,0 3.363,0.165 4.658,0.503 1.301,0.337 2.473,0.969 3.528,1.89 2.744,2.351 4.118,5.928 4.118,10.721 0,1.583 -0.135,3.025 -0.411,4.333 -0.276,1.307 -0.706,2.485 -1.276,3.534 -0.577,1.05 -1.314,1.989 -2.216,2.817 -0.705,0.632 -1.479,1.142 -2.319,1.522 -0.841,0.387 -1.743,0.657 -2.707,0.81 -0.963,0.154 -2.056,0.233 -3.265,0.233l-6.959 0c-0.969,0 -1.7,-0.147 -2.197,-0.442 -0.491,-0.294 -0.81,-0.705 -0.957,-1.239 -0.153,-0.534 -0.227,-1.227 -0.227,-2.074l0 -19.337c0,-1.148 0.258,-1.983 0.773,-2.498 0.516,-0.515 1.35,-0.773 2.498,-0.773zm2.068 4.234l0 17.895 4.05 0c0.884,0 1.584,-0.024 2.087,-0.074 0.503,-0.049 1.025,-0.166 1.565,-0.356 0.54,-0.196 1.006,-0.466 1.399,-0.81 1.785,-1.51 2.682,-4.111 2.682,-7.806 0,-2.602 -0.393,-4.553 -1.178,-5.848 -0.786,-1.295 -1.756,-2.117 -2.903,-2.473 -1.154,-0.35 -2.547,-0.528 -4.174,-0.528l-3.528 0z"/>
  <path id="_9" class="fil6" d="M86.883 220.245c-1.191,0.92 -2.339,1.608 -3.443,2.068 -1.111,0.46 -2.357,0.687 -3.731,0.687 -1.258,0 -2.369,-0.252 -3.32,-0.749 -0.951,-0.497 -1.688,-1.166 -2.203,-2.019 -0.516,-0.853 -0.773,-1.773 -0.773,-2.767 0,-1.344 0.423,-2.485 1.276,-3.431 0.853,-0.951 2.025,-1.583 3.516,-1.908 0.307,-0.074 1.08,-0.234 2.314,-0.485 1.233,-0.252 2.295,-0.479 3.173,-0.693 0.877,-0.209 1.834,-0.461 2.865,-0.761 -0.061,-1.295 -0.319,-2.246 -0.779,-2.848 -0.466,-0.608 -1.418,-0.908 -2.872,-0.908 -1.246,0 -2.185,0.172 -2.81,0.522 -0.633,0.343 -1.173,0.865 -1.621,1.564 -0.448,0.694 -0.767,1.148 -0.951,1.375 -0.19,0.221 -0.589,0.331 -1.197,0.331 -0.552,0 -1.03,-0.178 -1.429,-0.534 -0.399,-0.349 -0.602,-0.804 -0.602,-1.356 0,-0.865 0.307,-1.706 0.914,-2.522 0.614,-0.816 1.566,-1.485 2.86,-2.013 1.295,-0.527 2.909,-0.792 4.842,-0.792 2.154,0 3.854,0.258 5.088,0.768 1.233,0.509 2.104,1.313 2.614,2.417 0.509,1.105 0.767,2.566 0.767,4.388 0,1.154 -0.006,2.13 -0.012,2.934 -0.006,0.804 -0.013,1.7 -0.025,2.681 0,0.921 0.154,1.884 0.461,2.885 0.306,0.994 0.453,1.638 0.453,1.927 0,0.503 -0.233,0.963 -0.705,1.374 -0.479,0.411 -1.013,0.62 -1.614,0.62 -0.503,0 -1,-0.233 -1.491,-0.706 -0.491,-0.472 -1.013,-1.153 -1.565,-2.049zm-0.326 -7.113c-0.718,0.264 -1.761,0.546 -3.135,0.835 -1.369,0.294 -2.32,0.515 -2.848,0.65 -0.528,0.141 -1.031,0.411 -1.51,0.81 -0.478,0.405 -0.718,0.964 -0.718,1.688 0,0.743 0.283,1.375 0.847,1.896 0.559,0.522 1.295,0.786 2.209,0.786 0.97,0 1.866,-0.215 2.682,-0.638 0.822,-0.43 1.424,-0.976 1.811,-1.651 0.442,-0.743 0.662,-1.97 0.662,-3.676l0 -0.7z"/>
  <path id="_10" class="fil6" d="M95.713 203.485l0.54 0 0 -2.952c0,-0.791 0.019,-1.411 0.062,-1.859 0.043,-0.454 0.16,-0.841 0.35,-1.16 0.19,-0.338 0.466,-0.613 0.828,-0.822 0.356,-0.209 0.755,-0.313 1.203,-0.313 0.62,0 1.178,0.233 1.681,0.7 0.338,0.313 0.547,0.693 0.639,1.147 0.092,0.448 0.135,1.086 0.135,1.915l0 3.344 1.798 0c0.693,0 1.227,0.166 1.589,0.491 0.368,0.332 0.552,0.755 0.552,1.264 0,0.663 -0.263,1.123 -0.785,1.387 -0.522,0.264 -1.264,0.393 -2.24,0.393l-0.914 0 0 9.021c0,0.767 0.024,1.362 0.079,1.774 0.056,0.411 0.197,0.748 0.43,1.006 0.239,0.258 0.62,0.387 1.148,0.387 0.282,0 0.675,-0.049 1.165,-0.154 0.491,-0.098 0.878,-0.153 1.148,-0.153 0.399,0 0.755,0.159 1.074,0.478 0.319,0.32 0.473,0.712 0.473,1.179 0,0.791 -0.43,1.393 -1.289,1.81 -0.865,0.423 -2.105,0.632 -3.725,0.632 -1.534,0 -2.694,-0.258 -3.48,-0.773 -0.791,-0.516 -1.307,-1.227 -1.552,-2.142 -0.246,-0.908 -0.369,-2.123 -0.369,-3.645l0 -9.42 -0.644 0c-0.712,0 -1.252,-0.166 -1.62,-0.503 -0.374,-0.332 -0.559,-0.761 -0.559,-1.277 0,-0.509 0.197,-0.932 0.584,-1.264 0.392,-0.325 0.957,-0.491 1.699,-0.491z"/>
  <path id="_11" class="fil6" d="M120.88 220.245c-1.19,0.92 -2.338,1.608 -3.442,2.068 -1.111,0.46 -2.357,0.687 -3.731,0.687 -1.259,0 -2.369,-0.252 -3.32,-0.749 -0.952,-0.497 -1.688,-1.166 -2.203,-2.019 -0.516,-0.853 -0.774,-1.773 -0.774,-2.767 0,-1.344 0.424,-2.485 1.277,-3.431 0.853,-0.951 2.025,-1.583 3.516,-1.908 0.307,-0.074 1.08,-0.234 2.314,-0.485 1.233,-0.252 2.295,-0.479 3.172,-0.693 0.878,-0.209 1.835,-0.461 2.866,-0.761 -0.061,-1.295 -0.319,-2.246 -0.779,-2.848 -0.467,-0.608 -1.418,-0.908 -2.872,-0.908 -1.246,0 -2.185,0.172 -2.811,0.522 -0.632,0.343 -1.172,0.865 -1.62,1.564 -0.448,0.694 -0.767,1.148 -0.951,1.375 -0.191,0.221 -0.589,0.331 -1.197,0.331 -0.552,0 -1.031,-0.178 -1.43,-0.534 -0.399,-0.349 -0.601,-0.804 -0.601,-1.356 0,-0.865 0.307,-1.706 0.914,-2.522 0.614,-0.816 1.565,-1.485 2.86,-2.013 1.295,-0.527 2.909,-0.792 4.842,-0.792 2.154,0 3.854,0.258 5.087,0.768 1.234,0.509 2.105,1.313 2.615,2.417 0.509,1.105 0.767,2.566 0.767,4.388 0,1.154 -0.007,2.13 -0.013,2.934 -0.006,0.804 -0.012,1.7 -0.024,2.681 0,0.921 0.153,1.884 0.46,2.885 0.307,0.994 0.454,1.638 0.454,1.927 0,0.503 -0.233,0.963 -0.706,1.374 -0.478,0.411 -1.012,0.62 -1.613,0.62 -0.504,0 -1.001,-0.233 -1.492,-0.706 -0.491,-0.472 -1.012,-1.153 -1.565,-2.049zm-0.325 -7.113c-0.718,0.264 -1.761,0.546 -3.136,0.835 -1.368,0.294 -2.319,0.515 -2.847,0.65 -0.528,0.141 -1.031,0.411 -1.51,0.81 -0.479,0.405 -0.718,0.964 -0.718,1.688 0,0.743 0.282,1.375 0.847,1.896 0.558,0.522 1.295,0.786 2.209,0.786 0.97,0 1.866,-0.215 2.682,-0.638 0.822,-0.43 1.424,-0.976 1.811,-1.651 0.441,-0.743 0.662,-1.97 0.662,-3.676l0 -0.7z"/>
  <path id="_12" class="fil6" d="M134.4 198.557l0 7.499c0.92,-0.963 1.865,-1.699 2.822,-2.209 0.958,-0.509 2.148,-0.767 3.56,-0.767 1.632,0 3.062,0.387 4.289,1.16 1.228,0.773 2.179,1.896 2.854,3.363 0.681,1.467 1.019,3.21 1.019,5.222 0,1.486 -0.191,2.848 -0.565,4.087 -0.38,1.24 -0.926,2.32 -1.645,3.229 -0.718,0.914 -1.595,1.613 -2.62,2.11 -1.025,0.497 -2.154,0.749 -3.388,0.749 -0.754,0 -1.466,-0.092 -2.129,-0.27 -0.663,-0.178 -1.234,-0.417 -1.7,-0.712 -0.466,-0.288 -0.865,-0.595 -1.197,-0.908 -0.325,-0.307 -0.76,-0.773 -1.3,-1.399l0 0.485c0,0.92 -0.222,1.62 -0.663,2.092 -0.448,0.473 -1.013,0.712 -1.694,0.712 -0.694,0 -1.246,-0.239 -1.663,-0.712 -0.411,-0.472 -0.62,-1.172 -0.62,-2.092l0 -21.424c0,-0.994 0.203,-1.749 0.601,-2.258 0.406,-0.51 0.964,-0.761 1.682,-0.761 0.755,0 1.338,0.245 1.743,0.73 0.411,0.485 0.614,1.178 0.614,2.074zm0.233 14.581c0,1.952 0.448,3.449 1.337,4.499 0.896,1.049 2.062,1.571 3.511,1.571 1.233,0 2.301,-0.534 3.191,-1.608 0.889,-1.074 1.338,-2.608 1.338,-4.609 0,-1.289 -0.184,-2.406 -0.559,-3.338 -0.368,-0.933 -0.896,-1.657 -1.577,-2.167 -0.687,-0.509 -1.479,-0.761 -2.393,-0.761 -0.933,0 -1.762,0.252 -2.492,0.761 -0.73,0.51 -1.307,1.246 -1.724,2.21 -0.424,0.963 -0.632,2.111 -0.632,3.442z"/>
  <path id="_13" class="fil6" d="M165.286 220.245c-1.191,0.92 -2.339,1.608 -3.443,2.068 -1.111,0.46 -2.356,0.687 -3.731,0.687 -1.258,0 -2.369,-0.252 -3.32,-0.749 -0.951,-0.497 -1.688,-1.166 -2.203,-2.019 -0.516,-0.853 -0.773,-1.773 -0.773,-2.767 0,-1.344 0.423,-2.485 1.276,-3.431 0.853,-0.951 2.025,-1.583 3.516,-1.908 0.307,-0.074 1.08,-0.234 2.314,-0.485 1.234,-0.252 2.295,-0.479 3.173,-0.693 0.877,-0.209 1.834,-0.461 2.865,-0.761 -0.061,-1.295 -0.319,-2.246 -0.779,-2.848 -0.466,-0.608 -1.418,-0.908 -2.872,-0.908 -1.246,0 -2.185,0.172 -2.81,0.522 -0.633,0.343 -1.172,0.865 -1.621,1.564 -0.448,0.694 -0.767,1.148 -0.951,1.375 -0.19,0.221 -0.589,0.331 -1.197,0.331 -0.552,0 -1.03,-0.178 -1.429,-0.534 -0.399,-0.349 -0.602,-0.804 -0.602,-1.356 0,-0.865 0.307,-1.706 0.915,-2.522 0.613,-0.816 1.565,-1.485 2.86,-2.013 1.294,-0.527 2.908,-0.792 4.841,-0.792 2.154,0 3.854,0.258 5.088,0.768 1.233,0.509 2.105,1.313 2.614,2.417 0.509,1.105 0.767,2.566 0.767,4.388 0,1.154 -0.006,2.13 -0.012,2.934 -0.006,0.804 -0.013,1.7 -0.025,2.681 0,0.921 0.154,1.884 0.461,2.885 0.306,0.994 0.454,1.638 0.454,1.927 0,0.503 -0.234,0.963 -0.706,1.374 -0.479,0.411 -1.013,0.62 -1.614,0.62 -0.503,0 -1,-0.233 -1.491,-0.706 -0.491,-0.472 -1.013,-1.153 -1.565,-2.049zm-0.326 -7.113c-0.718,0.264 -1.761,0.546 -3.135,0.835 -1.369,0.294 -2.32,0.515 -2.848,0.65 -0.528,0.141 -1.031,0.411 -1.509,0.81 -0.479,0.405 -0.719,0.964 -0.719,1.688 0,0.743 0.283,1.375 0.847,1.896 0.559,0.522 1.295,0.786 2.21,0.786 0.969,0 1.865,-0.215 2.682,-0.638 0.822,-0.43 1.423,-0.976 1.81,-1.651 0.442,-0.743 0.662,-1.97 0.662,-3.676l0 -0.7z"/>
  <path id="_14" class="fil6" d="M190.557 216.593c0,1.35 -0.331,2.51 -0.988,3.474 -0.657,0.963 -1.632,1.693 -2.921,2.19 -1.289,0.498 -2.854,0.743 -4.701,0.743 -1.761,0 -3.271,-0.27 -4.529,-0.81 -1.258,-0.534 -2.185,-1.209 -2.786,-2.019 -0.595,-0.804 -0.896,-1.614 -0.896,-2.43 0,-0.54 0.19,-1.001 0.577,-1.381 0.38,-0.386 0.865,-0.577 1.454,-0.577 0.516,0 0.908,0.129 1.185,0.381 0.276,0.251 0.539,0.601 0.791,1.061 0.504,0.872 1.105,1.528 1.805,1.958 0.699,0.436 1.657,0.651 2.865,0.651 0.982,0 1.786,-0.221 2.412,-0.657 0.632,-0.436 0.945,-0.939 0.945,-1.504 0,-0.865 -0.325,-1.491 -0.976,-1.89 -0.656,-0.393 -1.73,-0.773 -3.227,-1.135 -1.688,-0.417 -3.063,-0.859 -4.124,-1.319 -1.056,-0.461 -1.903,-1.074 -2.541,-1.829 -0.632,-0.755 -0.951,-1.688 -0.951,-2.786 0,-0.988 0.294,-1.915 0.877,-2.792 0.589,-0.878 1.455,-1.572 2.602,-2.093 1.142,-0.522 2.522,-0.786 4.143,-0.786 1.27,0 2.411,0.129 3.418,0.393 1.012,0.264 1.859,0.62 2.534,1.062 0.681,0.448 1.197,0.939 1.547,1.479 0.356,0.54 0.534,1.061 0.534,1.583 0,0.559 -0.19,1.025 -0.571,1.381 -0.375,0.362 -0.914,0.54 -1.608,0.54 -0.503,0 -0.933,-0.141 -1.289,-0.43 -0.349,-0.288 -0.754,-0.718 -1.215,-1.294 -0.368,-0.479 -0.804,-0.866 -1.307,-1.154 -0.503,-0.289 -1.184,-0.43 -2.049,-0.43 -0.884,0 -1.621,0.19 -2.21,0.565 -0.583,0.38 -0.877,0.853 -0.877,1.417 0,0.516 0.215,0.939 0.644,1.264 0.436,0.332 1.013,0.608 1.743,0.823 0.73,0.215 1.737,0.478 3.019,0.791 1.522,0.368 2.768,0.817 3.731,1.332 0.964,0.516 1.694,1.123 2.191,1.829 0.497,0.699 0.749,1.497 0.749,2.399z"/>
  <path id="_15" class="fil6" d="M208.408 214.237l-9.603 0c0.012,1.117 0.239,2.099 0.675,2.952 0.435,0.853 1.018,1.491 1.742,1.92 0.725,0.436 1.529,0.651 2.4,0.651 0.589,0 1.123,-0.068 1.608,-0.209 0.491,-0.135 0.957,-0.35 1.411,-0.644 0.461,-0.295 0.878,-0.607 1.258,-0.945 0.387,-0.338 0.884,-0.792 1.498,-1.369 0.251,-0.214 0.607,-0.325 1.074,-0.325 0.503,0 0.914,0.141 1.227,0.417 0.307,0.271 0.466,0.663 0.466,1.166 0,0.442 -0.178,0.958 -0.521,1.553 -0.35,0.589 -0.872,1.16 -1.578,1.7 -0.699,0.546 -1.576,1 -2.638,1.356 -1.062,0.362 -2.283,0.54 -3.658,0.54 -3.154,0 -5.603,-0.902 -7.351,-2.7 -1.75,-1.798 -2.621,-4.235 -2.621,-7.315 0,-1.448 0.215,-2.798 0.644,-4.038 0.43,-1.24 1.062,-2.301 1.884,-3.191 0.829,-0.884 1.847,-1.565 3.056,-2.038 1.21,-0.472 2.554,-0.712 4.026,-0.712 1.921,0 3.566,0.406 4.934,1.216 1.375,0.81 2.399,1.853 3.087,3.142 0.681,1.282 1.025,2.59 1.025,3.921 0,1.234 -0.356,2.038 -1.062,2.406 -0.706,0.362 -1.7,0.546 -2.983,0.546zm-9.603 -2.798l8.898 0c-0.117,-1.676 -0.571,-2.928 -1.356,-3.762 -0.786,-0.829 -1.817,-1.246 -3.099,-1.246 -1.228,0 -2.228,0.423 -3.014,1.264 -0.785,0.847 -1.264,2.093 -1.429,3.744z"/>
 </g>
</svg>
