<?xml version="1.0" encoding="UTF-8"?>
<!DOCTYPE svg PUBLIC "-//W3C//DTD SVG 1.1//EN" "http://www.w3.org/Graphics/SVG/1.1/DTD/svg11.dtd">
<!-- Creator: CorelDRAW -->
<svg xmlns="http://www.w3.org/2000/svg" xml:space="preserve" width="256px" height="256px" version="1.1" style="shape-rendering:geometricPrecision; text-rendering:geometricPrecision; image-rendering:optimizeQuality; fill-rule:evenodd; clip-rule:evenodd"
viewBox="0 0 256 256"
 xmlns:xlink="http://www.w3.org/1999/xlink"
 xmlns:xodm="http://www.corel.com/coreldraw/odm/2003">
 <defs>
  <style type="text/css">
   <![CDATA[
    .fil1 {fill:#1670C6}
    .fil2 {fill:#CA336E}
    .fil4 {fill:#E5E9EC}
    .fil0 {fill:#F9742C}
    .fil3 {fill:black;fill-rule:nonzero}
   ]]>
  </style>
 </defs>
 <g id="Capa_x0020_1">
  <metadata id="CorelCorpID_0Corel-Layer"/>
  <g id="_1824841868304">
   <path class="fil0" d="M107.453 131.164l0.059 -22.284 0.044 -64.657c9.192,0.229 16.804,-0.507 24.679,5.18 11.565,8.352 10.82,13.871 12.915,16.96 0.483,-2.155 -0.708,-12.804 -1.043,-15.493 -0.812,-6.522 -2.405,-13.247 -6.193,-18.583 -1.357,-1.912 -2.087,-2.749 -3.941,-4.311 -3.619,-3.047 -8.141,-3.794 -11.33,-5.171 -7.518,-0.637 -24.558,-0.237 -33.67,-0.253 -12.137,-0.022 -10.166,-1.394 -10.132,23.608l-0.004 79.572c-0.02,4.299 1.61,5.361 5.853,5.369 7.508,0.015 15.289,-0.192 22.763,0.063z"/>
   <path class="fil1" d="M134.206 103.023c-1.597,0.741 -3.27,1.919 -5.248,2.781 -2.079,0.906 -3.869,1.488 -6.223,2.037 -4.578,1.069 -10.42,1.272 -15.223,1.039l-0.059 22.284c11.54,0.05 20.102,0.318 30.915,-2.798 8.827,-2.543 16.769,-7.025 22.199,-11.763l4.085 -4.178c10.983,-13.973 14.224,-26.962 11.99,-46.072 -2.304,1.272 -4.064,3.936 -5.225,4.932 -0.919,0.79 -1.615,1.488 -2.565,2.294 -1.431,1.212 -1.476,1.071 -2.399,2.443 -1.063,1.579 -3.913,3.213 -5.24,4.75 -2.739,3.173 -4.141,3.726 -4.963,4.729 -2.297,2.802 -1.662,1.074 -3.898,3.791l-5.218 4.497c-0.48,0.383 -0.701,0.644 -1.195,1.067 -2.14,1.831 -9.384,7.413 -11.733,8.167z"/>
   <path class="fil2" d="M145.15 66.363c0.027,3.053 1.131,4.225 0.736,11.461 -0.363,6.636 -1.695,13.525 -5.611,18.804 -3.324,4.481 -4.938,4.766 -6.069,6.395 2.349,-0.754 9.593,-6.336 11.733,-8.167 0.494,-0.423 0.715,-0.684 1.195,-1.067l5.218 -4.497c2.236,-2.717 1.601,-0.989 3.898,-3.791 0.822,-1.003 2.224,-1.556 4.963,-4.729 1.327,-1.537 4.177,-3.171 5.24,-4.75 0.923,-1.372 0.968,-1.231 2.399,-2.443 0.95,-0.806 1.646,-1.504 2.565,-2.294 1.161,-0.996 2.921,-3.66 5.225,-4.932 -1.517,-12.475 -7.868,-23.731 -17.767,-31.083 -9.673,-7.185 -20.875,-11.423 -36.232,-12.465 3.189,1.377 7.711,2.124 11.33,5.171 1.854,1.562 2.584,2.399 3.941,4.311 3.788,5.336 5.381,12.061 6.193,18.583 0.335,2.689 1.526,13.338 1.043,15.493z"/>
  </g>
  <path class="fil3" d="M21.653 135.146l12.026 0c3.129,0 5.812,0.286 8.05,0.87 2.248,0.583 4.274,1.675 6.098,3.266 4.741,4.062 7.116,10.245 7.116,18.528 0,2.736 -0.233,5.229 -0.71,7.488 -0.477,2.259 -1.22,4.295 -2.206,6.108 -0.997,1.814 -2.27,3.437 -3.829,4.868 -1.22,1.093 -2.556,1.973 -4.009,2.631 -1.453,0.668 -3.012,1.134 -4.677,1.4 -1.665,0.265 -3.552,0.403 -5.642,0.403l-12.027 0c-1.675,0 -2.937,-0.255 -3.796,-0.764 -0.849,-0.509 -1.4,-1.22 -1.655,-2.143 -0.265,-0.922 -0.392,-2.121 -0.392,-3.584l0 -33.418c0,-1.983 0.445,-3.426 1.336,-4.317 0.891,-0.89 2.333,-1.336 4.317,-1.336zm3.574 7.318l0 30.926 6.999 0c1.528,0 2.737,-0.043 3.606,-0.127 0.87,-0.085 1.771,-0.287 2.705,-0.616 0.933,-0.339 1.739,-0.806 2.418,-1.4 3.086,-2.609 4.634,-7.105 4.634,-13.49 0,-4.497 -0.678,-7.869 -2.036,-10.107 -1.358,-2.238 -3.033,-3.659 -5.016,-4.274 -1.994,-0.604 -4.402,-0.912 -7.212,-0.912l-6.098 0z"/>
  <path id="_1" class="fil3" d="M83.897 176.709c-2.058,1.591 -4.041,2.779 -5.95,3.574 -1.92,0.796 -4.073,1.188 -6.448,1.188 -2.174,0 -4.094,-0.435 -5.738,-1.294 -1.644,-0.859 -2.916,-2.015 -3.807,-3.489 -0.891,-1.474 -1.336,-3.065 -1.336,-4.783 0,-2.323 0.731,-4.295 2.205,-5.929 1.475,-1.643 3.5,-2.736 6.078,-3.298 0.53,-0.127 1.866,-0.403 3.998,-0.838 2.132,-0.435 3.966,-0.827 5.483,-1.198 1.517,-0.361 3.171,-0.796 4.953,-1.315 -0.106,-2.238 -0.552,-3.882 -1.347,-4.921 -0.806,-1.05 -2.45,-1.57 -4.964,-1.57 -2.153,0 -3.775,0.297 -4.857,0.901 -1.092,0.595 -2.026,1.496 -2.8,2.705 -0.774,1.198 -1.326,1.983 -1.644,2.376 -0.329,0.381 -1.018,0.572 -2.068,0.572 -0.954,0 -1.782,-0.307 -2.471,-0.922 -0.689,-0.605 -1.039,-1.39 -1.039,-2.344 0,-1.496 0.53,-2.949 1.58,-4.359 1.06,-1.411 2.704,-2.567 4.942,-3.479 2.238,-0.912 5.027,-1.368 8.368,-1.368 3.722,0 6.66,0.446 8.792,1.326 2.131,0.88 3.638,2.27 4.518,4.179 0.88,1.909 1.326,4.433 1.326,7.582 0,1.994 -0.011,3.681 -0.021,5.07 -0.011,1.389 -0.022,2.938 -0.043,4.634 0,1.591 0.265,3.257 0.795,4.985 0.531,1.718 0.785,2.832 0.785,3.33 0,0.87 -0.403,1.665 -1.22,2.376 -0.827,0.71 -1.749,1.071 -2.789,1.071 -0.87,0 -1.728,-0.403 -2.577,-1.22 -0.848,-0.816 -1.75,-1.993 -2.704,-3.542zm-0.562 -12.292c-1.241,0.457 -3.044,0.944 -5.42,1.443 -2.365,0.509 -4.009,0.89 -4.921,1.124 -0.912,0.244 -1.782,0.711 -2.609,1.4 -0.827,0.7 -1.241,1.665 -1.241,2.916 0,1.284 0.488,2.376 1.464,3.277 0.965,0.902 2.238,1.358 3.818,1.358 1.676,0 3.224,-0.371 4.635,-1.103 1.421,-0.742 2.46,-1.686 3.128,-2.853 0.764,-1.283 1.146,-3.404 1.146,-6.353l0 -1.209z"/>
  <path id="_2" class="fil3" d="M107.261 151.754l0 1.029c1.591,-1.973 3.256,-3.426 4.974,-4.348 1.718,-0.923 3.659,-1.39 5.833,-1.39 2.619,0 5.016,0.669 7.211,2.015 2.196,1.347 3.935,3.32 5.208,5.908 1.273,2.588 1.909,5.652 1.909,9.195 0,2.609 -0.371,5.006 -1.103,7.191 -0.732,2.184 -1.75,4.019 -3.033,5.504 -1.283,1.485 -2.8,2.619 -4.55,3.415 -1.75,0.795 -3.627,1.198 -5.642,1.198 -2.418,0 -4.454,-0.488 -6.098,-1.463 -1.644,-0.965 -3.214,-2.397 -4.709,-4.285l0 12.748c0,3.733 -1.358,5.599 -4.073,5.599 -1.591,0 -2.651,-0.477 -3.171,-1.442 -0.52,-0.965 -0.774,-2.365 -0.774,-4.21l0 -36.621c0,-1.612 0.35,-2.821 1.061,-3.617 0.7,-0.795 1.665,-1.198 2.884,-1.198 1.199,0 2.185,0.413 2.938,1.23 0.753,0.827 1.135,2.004 1.135,3.542zm16.608 12.335c0,-2.238 -0.339,-4.158 -1.028,-5.759 -0.679,-1.602 -1.623,-2.843 -2.832,-3.702 -1.22,-0.859 -2.556,-1.283 -4.02,-1.283 -2.344,0 -4.316,0.923 -5.918,2.758 -1.601,1.845 -2.407,4.56 -2.407,8.134 0,3.373 0.795,6.003 2.386,7.869 1.602,1.878 3.574,2.811 5.939,2.811 1.4,0 2.705,-0.414 3.903,-1.23 1.199,-0.817 2.164,-2.037 2.895,-3.67 0.721,-1.644 1.082,-3.617 1.082,-5.928z"/>
  <path id="_3" class="fil3" d="M147.032 151.754l0 1.029c1.591,-1.973 3.256,-3.426 4.974,-4.348 1.718,-0.923 3.659,-1.39 5.833,-1.39 2.619,0 5.016,0.669 7.211,2.015 2.196,1.347 3.935,3.32 5.208,5.908 1.272,2.588 1.909,5.652 1.909,9.195 0,2.609 -0.371,5.006 -1.103,7.191 -0.732,2.184 -1.75,4.019 -3.033,5.504 -1.284,1.485 -2.8,2.619 -4.55,3.415 -1.75,0.795 -3.627,1.198 -5.642,1.198 -2.418,0 -4.455,-0.488 -6.098,-1.463 -1.644,-0.965 -3.214,-2.397 -4.709,-4.285l0 12.748c0,3.733 -1.358,5.599 -4.073,5.599 -1.591,0 -2.651,-0.477 -3.171,-1.442 -0.52,-0.965 -0.774,-2.365 -0.774,-4.21l0 -36.621c0,-1.612 0.35,-2.821 1.06,-3.617 0.7,-0.795 1.666,-1.198 2.885,-1.198 1.199,0 2.185,0.413 2.938,1.23 0.753,0.827 1.135,2.004 1.135,3.542zm16.608 12.335c0,-2.238 -0.34,-4.158 -1.029,-5.759 -0.678,-1.602 -1.622,-2.843 -2.832,-3.702 -1.219,-0.859 -2.555,-1.283 -4.019,-1.283 -2.344,0 -4.316,0.923 -5.918,2.758 -1.601,1.845 -2.407,4.56 -2.407,8.134 0,3.373 0.795,6.003 2.386,7.869 1.602,1.878 3.574,2.811 5.939,2.811 1.4,0 2.705,-0.414 3.903,-1.23 1.199,-0.817 2.163,-2.037 2.895,-3.67 0.721,-1.644 1.082,-3.617 1.082,-5.928z"/>
  <path id="_4" class="fil3" d="M202.637 166.326l-16.598 0c0.021,1.931 0.414,3.628 1.167,5.102 0.753,1.474 1.76,2.577 3.012,3.319 1.251,0.753 2.64,1.124 4.146,1.124 1.019,0 1.941,-0.116 2.779,-0.36 0.849,-0.234 1.654,-0.605 2.44,-1.114 0.795,-0.509 1.516,-1.05 2.173,-1.633 0.669,-0.584 1.528,-1.368 2.588,-2.365 0.435,-0.371 1.05,-0.562 1.856,-0.562 0.87,0 1.58,0.244 2.121,0.721 0.53,0.467 0.806,1.146 0.806,2.015 0,0.764 -0.307,1.654 -0.901,2.683 -0.605,1.018 -1.506,2.005 -2.726,2.938 -1.209,0.944 -2.725,1.729 -4.56,2.344 -1.835,0.626 -3.945,0.933 -6.321,0.933 -5.451,0 -9.683,-1.559 -12.705,-4.666 -3.023,-3.108 -4.529,-7.318 -4.529,-12.642 0,-2.503 0.371,-4.836 1.113,-6.979 0.743,-2.142 1.835,-3.977 3.256,-5.515 1.432,-1.527 3.193,-2.704 5.282,-3.521 2.089,-0.816 4.412,-1.23 6.957,-1.23 3.32,0 6.162,0.7 8.527,2.1 2.376,1.4 4.147,3.203 5.335,5.43 1.177,2.217 1.771,4.476 1.771,6.777 0,2.132 -0.615,3.521 -1.835,4.158 -1.22,0.625 -2.938,0.943 -5.154,0.943zm-16.598 -4.836l15.378 0c-0.201,-2.895 -0.986,-5.058 -2.344,-6.501 -1.357,-1.432 -3.139,-2.153 -5.356,-2.153 -2.121,0 -3.849,0.732 -5.207,2.185 -1.357,1.463 -2.185,3.616 -2.471,6.469z"/>
  <path id="_5" class="fil3" d="M225.184 169.232l0 7.085c0,1.718 -0.403,3.001 -1.209,3.86 -0.806,0.859 -1.824,1.294 -3.065,1.294 -1.219,0 -2.227,-0.435 -3.012,-1.304 -0.785,-0.87 -1.177,-2.153 -1.177,-3.85l0 -23.619c0,-3.807 1.379,-5.716 4.126,-5.716 1.399,0 2.418,0.445 3.033,1.336 0.626,0.891 0.965,2.217 1.028,3.956 1.008,-1.739 2.047,-3.065 3.119,-3.956 1.071,-0.891 2.492,-1.336 4.274,-1.336 1.781,0 3.51,0.445 5.186,1.336 1.676,0.891 2.513,2.079 2.513,3.553 0,1.039 -0.35,1.888 -1.071,2.566 -0.711,0.679 -1.485,1.008 -2.312,1.008 -0.308,0 -1.061,-0.191 -2.248,-0.573 -1.199,-0.382 -2.248,-0.572 -3.161,-0.572 -1.241,0 -2.248,0.328 -3.044,0.975 -0.785,0.658 -1.399,1.623 -1.834,2.906 -0.435,1.284 -0.732,2.811 -0.902,4.582 -0.159,1.771 -0.244,3.924 -0.244,6.469z"/>
  <rect class="fil4" x="87.5" y="198.133" width="81" height="38" rx="7.367" ry="7.367"/>
  <polygon class="fil3" points="116.662,229.536 110.424,229.536 110.424,220.327 101.166,220.327 101.166,213.99 110.424,213.99 110.424,204.731 116.662,204.731 116.662,213.99 125.97,213.99 125.97,220.327 116.662,220.327 "/>
  <polygon id="_1_0" class="fil3" points="145.526,229.536 139.288,229.536 139.288,220.327 130.03,220.327 130.03,213.99 139.288,213.99 139.288,204.731 145.526,204.731 145.526,213.99 154.834,213.99 154.834,220.327 145.526,220.327 "/>
 </g>
</svg>
