<?xml version="1.0" encoding="UTF-8"?>
<!DOCTYPE svg PUBLIC "-//W3C//DTD SVG 1.1//EN" "http://www.w3.org/Graphics/SVG/1.1/DTD/svg11.dtd">
<!-- Creator: CorelDRAW -->
<svg xmlns="http://www.w3.org/2000/svg" xml:space="preserve" width="256px" height="256px" version="1.1" style="shape-rendering:geometricPrecision; text-rendering:geometricPrecision; image-rendering:optimizeQuality; fill-rule:evenodd; clip-rule:evenodd"
viewBox="0 0 256 256"
 xmlns:xlink="http://www.w3.org/1999/xlink"
 xmlns:xodm="http://www.corel.com/coreldraw/odm/2003">
 <defs>
  <style type="text/css">
   <![CDATA[
    .str1 {stroke:white;stroke-width:2;stroke-miterlimit:22.9256}
    .str0 {stroke:white;stroke-width:8;stroke-miterlimit:22.9256}
    .fil8 {fill:none;fill-rule:nonzero}
    .fil6 {fill:#1670C6}
    .fil7 {fill:#CA336E}
    .fil5 {fill:#F9742C}
    .fil4 {fill:white}
    .fil9 {fill:black;fill-rule:nonzero}
    .fil1 {fill:url(#id0)}
    .fil3 {fill:url(#id1)}
    .fil0 {fill:url(#id2)}
    .fil2 {fill:url(#id3)}
   ]]>
  </style>
  <linearGradient id="id0" gradientUnits="userSpaceOnUse" x1="26.163" y1="81.328" x2="225.33" y2="40.681">
   <stop offset="0" style="stop-opacity:1; stop-color:#2741B6"/>
   <stop offset="1" style="stop-opacity:1; stop-color:#0AA6FA"/>
  </linearGradient>
  <linearGradient id="id1" gradientUnits="userSpaceOnUse" x1="27.451" y1="121.87" x2="153.379" y2="89.846">
   <stop offset="0" style="stop-opacity:1; stop-color:#0B8ADC"/>
   <stop offset="1" style="stop-opacity:1; stop-color:#ABCAFD"/>
  </linearGradient>
  <linearGradient id="id2" gradientUnits="userSpaceOnUse" xlink:href="#id0" x1="101.236" y1="165.199" x2="225.898" y2="138.654">
  </linearGradient>
  <linearGradient id="id3" gradientUnits="userSpaceOnUse" xlink:href="#id1" x1="27.822" y1="222.968" x2="225.158" y2="178.23">
  </linearGradient>
 </defs>
 <g id="Capa_x0020_1">
  <metadata id="CorelCorpID_0Corel-Layer"/>
  <g id="_1825011230816">
   <path class="fil0" d="M179.92 170.259c10.681,-2.02 27.363,-7.894 36.008,-14.367 3.916,-2.932 8.744,-7.312 9.791,-12.817 0.364,-1.933 0.199,-2.555 0.179,-4.421 0.054,-5.181 -4.325,-9.191 -7.596,-12.346 -0.8,-0.773 -2.536,-1.97 -3.687,-2.766 -4.7,-3.247 -11.566,-6.448 -17.984,-8.665 -6.926,-2.393 -13.618,-4.164 -21.094,-5.738 -6.178,-1.301 -16.992,-3.259 -23.387,-3.363l-0.986 -0.165c-0.006,5.315 -0.023,10.63 -0.029,15.945 -0.004,4.664 0.367,11.148 -0.231,15.516 -0.596,5.146 -4.541,9.727 -7.623,11.701 -6.474,4.147 -8.521,2.652 -16.577,3.296l-7.134 -0.07c-2.948,0.051 -6.28,-0.161 -9.249,-0.357 -2.04,-0.135 -7.433,-0.859 -9.04,-0.523l-0.075 23.688 9.553 0.644c9.82,0.869 19.763,0.103 29.578,0.016l0.935 -0.005c4.351,-0.179 8.956,-0.604 13.263,-1.067 4.365,-0.469 8.808,-1.321 13.028,-1.718l12.357 -2.418z"/>
   <path class="fil1" d="M224.238 91.192c2.929,-2.754 1.876,-15.301 1.875,-20.046 -0.002,-7.202 -0.003,-14.403 -0.003,-21.605 0,-8.94 -0.829,-11.216 -5.616,-16.391 -3.039,-3.286 -8.958,-6.858 -13.279,-8.962 -18.941,-9.22 -43.193,-13.038 -64.929,-14.374 -2.699,-0.166 -8.432,-0.048 -10.598,-0.462l-3.005 0 -9.169 0 -16.985 1.008c-10.797,0.809 -35.585,4.678 -44.839,8.725 -4.684,1.503 -8.543,3.21 -12.726,5.176 -3.005,1.411 -9.284,5.08 -10.812,6.948 -1.576,0.689 -3.806,3.521 -4.979,5.209 -1.45,2.089 -2.602,4.521 -2.909,7.569 -0.509,8.481 5.74,12.349 6.235,13.654l2.739 2.285c0.988,0.781 1.891,1.358 2.939,2.083 3.647,2.521 9.101,4.995 13.382,6.763 2.279,0.941 5.6,1.815 7.562,2.773 2.223,0.534 4.508,1.315 6.763,1.951 2.3,0.648 4.572,1.114 6.991,1.721 2.53,0.634 12.488,2.817 15.054,2.566 0.821,0.559 1.308,0.11 2.01,0.67 1.389,-0.102 11.573,0.935 12.243,1.393 2.555,-0.303 9.551,0.537 12.767,0.64 4.436,0.142 8.811,0.155 13.286,0.196l7.818 0.24c22.849,0.683 49.156,4.559 69.391,13.728 3.369,1.526 6.467,3.09 10.979,2.249 3.241,-0.605 7.22,-3.416 7.815,-5.707z"/>
   <path class="fil2" d="M179.92 170.259l-12.357 2.418c-4.22,0.397 -8.663,1.249 -13.028,1.718 -4.307,0.463 -8.912,0.888 -13.263,1.067l-0.935 0.005c-9.815,0.087 -19.758,0.853 -29.578,-0.016 -19.486,-1.315 -17.155,-1.216 -26.482,-2.902l-15.448 -3.081c-1.488,-0.566 -4.086,-1.123 -5.708,-1.583 -5.534,-1.57 -11.123,-3.634 -16.226,-5.942 -3.801,-1.718 -7.177,-3.426 -12.263,-1.855 -3.662,1.131 -6.285,3.576 -7.586,6.952 -1.517,3.932 -0.835,22.149 -0.837,27.692 -0.002,4.724 -0.001,9.448 -0.002,14.171 -0.002,5.008 0.475,7.695 2.955,11.272 10.336,14.907 43.42,22.647 63.761,25.02 4.235,0.494 24.814,2.616 27.679,1.826l0 0.212 13.632 0c1.281,-0.346 7.763,-0.43 9.744,-0.558 3.064,-0.198 6.068,-0.433 9.132,-0.758 5.968,-0.634 11.694,-1.406 17.355,-2.401 4.673,-0.487 11.659,-2.277 15.98,-3.488 2.533,-0.71 4.938,-1.388 7.436,-2.22 2.448,-0.815 4.724,-1.811 6.967,-2.526 4.826,-1.804 11.605,-5.248 15.541,-8.325 11.645,-9.103 9.859,-14.005 9.834,-28.276 -0.01,-5.548 0.326,-59.239 -0.325,-60.027 0.02,1.866 0.185,2.488 -0.179,4.421 -1.047,5.505 -5.875,9.885 -9.791,12.817 -8.645,6.473 -25.327,12.347 -36.008,14.367z"/>
   <path class="fil3" d="M151.164 105.611l0.986 0.165c-1.056,-0.706 -0.554,0.165 -0.862,-0.745l-0.046 -4.847c0.022,-9.639 -4.702,-16.038 -13.61,-18.821 -0.435,-0.136 -1.252,-0.3 -1.579,-0.441l-7.818 -0.24c-4.475,-0.041 -8.85,-0.054 -13.286,-0.196 -3.216,-0.103 -10.212,-0.943 -12.767,-0.64 -0.67,-0.458 -10.854,-1.495 -12.243,-1.393 -0.702,-0.56 -1.189,-0.111 -2.01,-0.67 -2.566,0.251 -12.524,-1.932 -15.054,-2.566 -2.419,-0.607 -4.691,-1.073 -6.991,-1.721 -2.255,-0.636 -4.54,-1.417 -6.763,-1.951 -1.962,-0.958 -5.283,-1.832 -7.562,-2.773 -4.281,-1.768 -9.735,-4.242 -13.382,-6.763 -1.048,-0.725 -1.951,-1.302 -2.939,-2.083l-2.739 -2.285c-0.495,-1.305 -6.744,-5.173 -6.235,-13.654 -0.534,6.205 -0.093,14.234 -0.098,20.654l-0.009 41.815c-0.002,8.081 -0.827,15.549 5.083,21.149 1.009,0.956 1.875,1.736 2.829,2.65 1.547,1.484 4.256,3.254 6.307,4.451 9.164,5.353 20.869,9.31 31.659,11.663 3.296,0.72 16.061,3.543 18.759,3.203 0.915,0.659 9.082,1.271 10.155,1.384 0.214,0.617 0.293,3.724 0.309,7.518l0 0 0.023 -7.355c1.607,-0.336 7,0.388 9.04,0.523 2.969,0.196 6.301,0.408 9.249,0.357l7.134 0.07c8.056,-0.644 10.103,0.851 16.577,-3.296 3.082,-1.974 7.027,-6.555 7.623,-11.701 0.598,-4.368 0.227,-10.852 0.231,-15.516 0.006,-5.315 0.023,-10.63 0.029,-15.945z"/>
  </g>
  <g id="_1825011230528">
   <path class="fil4 str0" d="M120.342 114.04l0.037 -53.412c7.593,0.189 13.881,-0.419 20.387,4.279 9.553,6.899 8.938,11.459 10.669,14.01 0.022,2.523 0.934,3.49 0.607,9.468 -0.299,5.482 -1.4,11.172 -4.634,15.534 -2.746,3.701 -4.079,3.936 -5.014,5.283 -1.319,0.612 -2.702,1.584 -4.335,2.297 -1.718,0.748 -3.196,1.229 -5.14,1.683 -3.782,0.882 -8.609,1.05 -12.577,0.858zm12.5 -71.105c-6.211,-0.526 -20.287,-0.196 -27.814,-0.209 -10.026,-0.018 -8.397,-1.152 -8.369,19.502l-0.005 65.733c-0.015,3.551 1.331,4.429 4.836,4.436 6.203,0.011 12.63,-0.16 18.804,0.051 9.533,0.041 16.606,0.263 25.538,-2.311 7.292,-2.101 13.853,-5.804 18.339,-9.718l3.374 -3.451c9.073,-11.542 11.75,-22.273 9.905,-38.059 -1.254,-10.305 -6.5,-19.604 -14.677,-25.677 -7.991,-5.936 -17.245,-9.437 -29.931,-10.297z"/>
   <g>
    <path class="fil5" d="M120.294 132.448l0.048 -18.408 0.037 -53.412c7.593,0.189 13.881,-0.419 20.387,4.279 9.553,6.899 8.938,11.459 10.669,14.01 0.399,-1.78 -0.585,-10.577 -0.862,-12.799 -0.67,-5.387 -1.987,-10.942 -5.116,-15.35 -1.121,-1.58 -1.724,-2.271 -3.255,-3.561 -2.99,-2.518 -6.725,-3.135 -9.36,-4.273 -6.211,-0.526 -20.287,-0.195 -27.814,-0.209 -10.026,-0.017 -8.398,-1.15 -8.369,19.503l-0.005 65.733c-0.015,3.551 1.331,4.429 4.836,4.435 6.203,0.012 12.63,-0.159 18.804,0.052z"/>
    <path class="fil6" d="M142.394 109.202c-1.319,0.612 -2.702,1.584 -4.335,2.297 -1.718,0.748 -3.196,1.229 -5.141,1.683 -3.782,0.882 -8.608,1.05 -12.576,0.858l-0.048 18.408c9.533,0.041 16.606,0.262 25.538,-2.311 7.292,-2.101 13.853,-5.804 18.339,-9.718l3.374 -3.451c9.073,-11.542 11.75,-22.273 9.905,-38.059 -1.904,1.051 -3.357,3.251 -4.317,4.074 -0.759,0.652 -1.333,1.23 -2.118,1.895 -1.182,1.001 -1.219,0.885 -1.982,2.018 -0.878,1.304 -3.232,2.654 -4.329,3.924 -2.262,2.621 -3.421,3.078 -4.1,3.907 -1.897,2.314 -1.373,0.887 -3.22,3.131l-4.31 3.715c-0.397,0.316 -0.58,0.532 -0.988,0.882 -1.767,1.512 -7.752,6.123 -9.692,6.747z"/>
    <path class="fil7" d="M151.435 78.917c0.022,2.523 0.934,3.49 0.607,9.467 -0.299,5.483 -1.399,11.173 -4.634,15.535 -2.746,3.701 -4.079,3.936 -5.014,5.283 1.94,-0.624 7.925,-5.235 9.692,-6.747 0.408,-0.35 0.591,-0.566 0.988,-0.882l4.31 -3.715c1.847,-2.244 1.323,-0.817 3.22,-3.131 0.679,-0.829 1.838,-1.286 4.1,-3.907 1.097,-1.27 3.451,-2.62 4.329,-3.924 0.763,-1.133 0.8,-1.017 1.982,-2.018 0.785,-0.665 1.359,-1.243 2.118,-1.895 0.96,-0.823 2.413,-3.023 4.317,-4.074 -1.254,-10.306 -6.5,-19.604 -14.677,-25.677 -7.991,-5.936 -17.245,-9.437 -29.931,-10.298 2.635,1.138 6.37,1.755 9.36,4.273 1.531,1.29 2.134,1.981 3.255,3.561 3.129,4.408 4.446,9.963 5.116,15.35 0.277,2.222 1.261,11.019 0.862,12.799z"/>
   </g>
  </g>
  <g>
   <path class="fil8 str1" d="M74.658 201.521c0,1.055 -0.273,2.004 -0.819,2.847 -0.542,0.843 -1.34,1.503 -2.391,1.979 -1.051,0.477 -2.298,0.713 -3.735,0.713 -1.728,0 -3.153,-0.325 -4.274,-0.973 -0.794,-0.469 -1.437,-1.096 -1.934,-1.878 -0.497,-0.782 -0.746,-1.544 -0.746,-2.285 0,-0.428 0.151,-0.795 0.448,-1.104 0.298,-0.305 0.676,-0.456 1.137,-0.456 0.375,0 0.688,0.118 0.945,0.358 0.26,0.237 0.48,0.591 0.664,1.063 0.22,0.554 0.464,1.023 0.721,1.393 0.261,0.375 0.623,0.685 1.091,0.929 0.473,0.24 1.088,0.363 1.854,0.363 1.047,0 1.902,-0.245 2.558,-0.733 0.656,-0.489 0.986,-1.1 0.986,-1.833 0,-0.583 -0.175,-1.055 -0.53,-1.414 -0.354,-0.362 -0.814,-0.64 -1.377,-0.831 -0.558,-0.191 -1.311,-0.395 -2.248,-0.611 -1.255,-0.293 -2.31,-0.639 -3.153,-1.031 -0.847,-0.395 -1.519,-0.932 -2.016,-1.613 -0.497,-0.68 -0.746,-1.523 -0.746,-2.537 0,-0.961 0.261,-1.817 0.787,-2.567 0.525,-0.745 1.287,-1.319 2.281,-1.722 0.993,-0.404 2.163,-0.603 3.507,-0.603 1.071,0 2,0.134 2.786,0.399 0.782,0.269 1.434,0.623 1.951,1.063 0.513,0.44 0.892,0.904 1.132,1.389 0.236,0.485 0.359,0.961 0.359,1.422 0,0.419 -0.151,0.802 -0.448,1.14 -0.298,0.338 -0.672,0.505 -1.116,0.505 -0.408,0 -0.713,-0.101 -0.925,-0.301 -0.212,-0.204 -0.44,-0.538 -0.684,-0.998 -0.322,-0.66 -0.701,-1.177 -1.149,-1.548 -0.444,-0.371 -1.161,-0.554 -2.151,-0.554 -0.912,0 -1.653,0.2 -2.212,0.603 -0.562,0.403 -0.843,0.884 -0.843,1.45 0,0.35 0.094,0.652 0.285,0.908 0.192,0.253 0.457,0.473 0.791,0.656 0.334,0.183 0.672,0.326 1.014,0.432 0.342,0.102 0.908,0.253 1.695,0.452 0.985,0.232 1.881,0.485 2.68,0.766 0.798,0.277 1.478,0.615 2.041,1.014 0.562,0.395 0.997,0.9 1.311,1.507 0.314,0.611 0.473,1.357 0.473,2.241z"/>
  </g>
  <g>
   <path id="_1" class="fil8 str1" d="M91.733 204.596c0.517,0.35 1.083,0.688 1.694,1.018 0.615,0.33 1.019,0.591 1.218,0.786 0.2,0.196 0.298,0.473 0.298,0.827 0,0.257 -0.114,0.509 -0.351,0.766 -0.236,0.253 -0.517,0.379 -0.851,0.379 -0.273,0 -0.603,-0.086 -0.986,-0.261 -0.387,-0.175 -0.839,-0.432 -1.36,-0.766 -0.521,-0.333 -1.092,-0.72 -1.715,-1.165 -1.153,0.587 -2.566,0.88 -4.244,0.88 -1.361,0 -2.579,-0.215 -3.658,-0.651 -1.075,-0.432 -1.984,-1.056 -2.713,-1.87 -0.733,-0.819 -1.283,-1.784 -1.654,-2.908 -0.37,-1.121 -0.554,-2.343 -0.554,-3.662 0,-1.345 0.191,-2.575 0.578,-3.699 0.388,-1.12 0.946,-2.073 1.679,-2.863 0.729,-0.787 1.621,-1.389 2.672,-1.805 1.047,-0.42 2.24,-0.627 3.576,-0.627 1.817,0 3.373,0.366 4.673,1.103 1.299,0.738 2.285,1.781 2.953,3.137 0.668,1.357 1.001,2.953 1.001,4.782 0,2.774 -0.753,4.974 -2.256,6.599zm-2.778 -1.935c0.493,-0.562 0.855,-1.234 1.092,-2.004 0.232,-0.774 0.35,-1.67 0.35,-2.688 0,-1.279 -0.208,-2.391 -0.619,-3.328 -0.416,-0.941 -1.006,-1.65 -1.772,-2.135 -0.766,-0.48 -1.65,-0.721 -2.644,-0.721 -0.705,0 -1.36,0.135 -1.959,0.399 -0.603,0.269 -1.12,0.656 -1.552,1.165 -0.432,0.51 -0.774,1.161 -1.026,1.952 -0.249,0.794 -0.375,1.682 -0.375,2.668 0,2.016 0.468,3.564 1.409,4.651 0.937,1.088 2.122,1.63 3.552,1.63 0.591,0 1.194,-0.123 1.813,-0.371 -0.375,-0.277 -0.839,-0.558 -1.401,-0.835 -0.562,-0.277 -0.946,-0.493 -1.149,-0.643 -0.208,-0.151 -0.314,-0.367 -0.314,-0.648 0,-0.237 0.102,-0.448 0.302,-0.631 0.195,-0.184 0.415,-0.273 0.655,-0.273 0.721,0 1.935,0.602 3.638,1.812z"/>
  </g>
  <g>
   <path id="_2" class="fil8 str1" d="M100.491 191.121l0 12.738 7.185 0c0.57,0 1.01,0.138 1.316,0.415 0.309,0.281 0.46,0.632 0.46,1.051 0,0.428 -0.151,0.778 -0.452,1.043 -0.302,0.264 -0.745,0.399 -1.324,0.399l-8.558 0c-0.77,0 -1.324,-0.171 -1.662,-0.513 -0.338,-0.342 -0.509,-0.896 -0.509,-1.658l0 -13.475c0,-0.713 0.163,-1.25 0.484,-1.609 0.323,-0.358 0.746,-0.537 1.272,-0.537 0.529,0 0.961,0.175 1.291,0.529 0.33,0.355 0.497,0.897 0.497,1.617z"/>
  </g>
  <g>
   <path id="_3" class="fil8 str1" d="M131.187 201.521c0,1.055 -0.273,2.004 -0.818,2.847 -0.542,0.843 -1.341,1.503 -2.392,1.979 -1.05,0.477 -2.297,0.713 -3.735,0.713 -1.727,0 -3.153,-0.325 -4.273,-0.973 -0.794,-0.469 -1.437,-1.096 -1.934,-1.878 -0.498,-0.782 -0.746,-1.544 -0.746,-2.285 0,-0.428 0.151,-0.795 0.448,-1.104 0.298,-0.305 0.676,-0.456 1.137,-0.456 0.374,0 0.688,0.118 0.944,0.358 0.261,0.237 0.481,0.591 0.665,1.063 0.219,0.554 0.464,1.023 0.721,1.393 0.26,0.375 0.623,0.685 1.091,0.929 0.473,0.24 1.088,0.363 1.854,0.363 1.047,0 1.902,-0.245 2.558,-0.733 0.655,-0.489 0.985,-1.1 0.985,-1.833 0,-0.583 -0.175,-1.055 -0.529,-1.414 -0.355,-0.362 -0.815,-0.64 -1.377,-0.831 -0.558,-0.191 -1.312,-0.395 -2.248,-0.611 -1.255,-0.293 -2.31,-0.639 -3.153,-1.031 -0.847,-0.395 -1.519,-0.932 -2.016,-1.613 -0.497,-0.68 -0.746,-1.523 -0.746,-2.537 0,-0.961 0.261,-1.817 0.786,-2.567 0.526,-0.745 1.287,-1.319 2.281,-1.722 0.994,-0.404 2.163,-0.603 3.507,-0.603 1.072,0 2.001,0.134 2.787,0.399 0.782,0.269 1.433,0.623 1.951,1.063 0.513,0.44 0.892,0.904 1.132,1.389 0.236,0.485 0.359,0.961 0.359,1.422 0,0.419 -0.151,0.802 -0.449,1.14 -0.297,0.338 -0.672,0.505 -1.116,0.505 -0.407,0 -0.712,-0.101 -0.924,-0.301 -0.212,-0.204 -0.44,-0.538 -0.685,-0.998 -0.321,-0.66 -0.7,-1.177 -1.148,-1.548 -0.444,-0.371 -1.161,-0.554 -2.151,-0.554 -0.913,0 -1.654,0.2 -2.212,0.603 -0.562,0.403 -0.843,0.884 -0.843,1.45 0,0.35 0.094,0.652 0.285,0.908 0.191,0.253 0.456,0.473 0.791,0.656 0.333,0.183 0.672,0.326 1.014,0.432 0.342,0.102 0.908,0.253 1.694,0.452 0.986,0.232 1.882,0.485 2.68,0.766 0.799,0.277 1.479,0.615 2.041,1.014 0.562,0.395 0.998,0.9 1.312,1.507 0.314,0.611 0.472,1.357 0.472,2.241z"/>
  </g>
  <g>
   <path id="_4" class="fil8 str1" d="M143.061 201.244l-6.374 0c0.007,0.741 0.158,1.393 0.447,1.959 0.29,0.566 0.677,0.99 1.157,1.275 0.481,0.289 1.014,0.432 1.593,0.432 0.391,0 0.745,-0.045 1.067,-0.139 0.326,-0.09 0.636,-0.232 0.937,-0.428 0.305,-0.195 0.582,-0.403 0.835,-0.627 0.256,-0.224 0.586,-0.525 0.994,-0.908 0.167,-0.143 0.403,-0.216 0.713,-0.216 0.334,0 0.607,0.094 0.815,0.277 0.203,0.179 0.309,0.44 0.309,0.774 0,0.293 -0.118,0.635 -0.346,1.03 -0.233,0.391 -0.579,0.77 -1.047,1.129 -0.465,0.362 -1.047,0.663 -1.752,0.9 -0.704,0.24 -1.515,0.358 -2.427,0.358 -2.094,0 -3.719,-0.598 -4.88,-1.792 -1.161,-1.194 -1.74,-2.81 -1.74,-4.856 0,-0.961 0.143,-1.857 0.428,-2.68 0.285,-0.822 0.705,-1.527 1.251,-2.118 0.549,-0.586 1.226,-1.039 2.028,-1.352 0.803,-0.314 1.695,-0.473 2.673,-0.473 1.274,0 2.366,0.269 3.274,0.807 0.913,0.538 1.593,1.23 2.049,2.085 0.452,0.852 0.68,1.719 0.68,2.603 0,0.819 -0.236,1.353 -0.704,1.597 -0.469,0.241 -1.128,0.363 -1.98,0.363zm-6.374 -1.858l5.906 0c-0.078,-1.112 -0.379,-1.943 -0.901,-2.497 -0.521,-0.55 -1.205,-0.827 -2.057,-0.827 -0.814,0 -1.478,0.281 -1.999,0.839 -0.522,0.563 -0.84,1.389 -0.949,2.485z"/>
  </g>
  <g>
   <path id="_5" class="fil8 str1" d="M151.721 202.36l0 2.721c0,0.659 -0.155,1.152 -0.464,1.482 -0.31,0.33 -0.701,0.497 -1.178,0.497 -0.468,0 -0.855,-0.167 -1.157,-0.501 -0.301,-0.334 -0.452,-0.826 -0.452,-1.478l0 -9.072c0,-1.462 0.53,-2.195 1.585,-2.195 0.538,0 0.929,0.171 1.165,0.513 0.24,0.342 0.371,0.851 0.395,1.519 0.387,-0.668 0.786,-1.177 1.198,-1.519 0.411,-0.342 0.957,-0.513 1.641,-0.513 0.685,0 1.348,0.171 1.992,0.513 0.644,0.342 0.965,0.798 0.965,1.364 0,0.4 -0.134,0.726 -0.411,0.987 -0.273,0.26 -0.57,0.386 -0.888,0.386 -0.118,0 -0.407,-0.073 -0.863,-0.22 -0.461,-0.146 -0.864,-0.22 -1.214,-0.22 -0.477,0 -0.864,0.127 -1.169,0.375 -0.302,0.253 -0.538,0.623 -0.705,1.116 -0.167,0.493 -0.281,1.08 -0.347,1.76 -0.06,0.68 -0.093,1.507 -0.093,2.485z"/>
  </g>
  <g>
   <path id="_6" class="fil8 str1" d="M161.179 195.842l2.636 7.406 2.839 -7.727c0.224,-0.619 0.44,-1.059 0.656,-1.32 0.216,-0.257 0.541,-0.387 0.977,-0.387 0.416,0 0.766,0.139 1.055,0.419 0.29,0.277 0.436,0.599 0.436,0.966 0,0.142 -0.024,0.309 -0.077,0.501 -0.053,0.191 -0.11,0.371 -0.179,0.538 -0.07,0.166 -0.147,0.358 -0.232,0.57l-3.125 7.759c-0.09,0.22 -0.2,0.506 -0.342,0.848 -0.138,0.342 -0.293,0.631 -0.464,0.875 -0.171,0.245 -0.383,0.432 -0.632,0.567 -0.252,0.134 -0.554,0.203 -0.912,0.203 -0.46,0 -0.827,-0.106 -1.104,-0.318 -0.273,-0.207 -0.477,-0.439 -0.607,-0.692 -0.13,-0.248 -0.354,-0.745 -0.664,-1.483l-3.1 -7.674c-0.073,-0.191 -0.146,-0.383 -0.22,-0.574 -0.077,-0.191 -0.138,-0.383 -0.191,-0.583 -0.053,-0.199 -0.077,-0.37 -0.077,-0.513 0,-0.224 0.069,-0.444 0.203,-0.664 0.134,-0.22 0.322,-0.399 0.558,-0.537 0.24,-0.139 0.497,-0.208 0.778,-0.208 0.538,0 0.913,0.155 1.116,0.464 0.2,0.314 0.424,0.835 0.672,1.564z"/>
  </g>
  <g>
   <path id="_7" class="fil8 str1" d="M180.89 201.244l-6.374 0c0.008,0.741 0.159,1.393 0.448,1.959 0.289,0.566 0.676,0.99 1.157,1.275 0.48,0.289 1.014,0.432 1.592,0.432 0.391,0 0.746,-0.045 1.067,-0.139 0.326,-0.09 0.636,-0.232 0.937,-0.428 0.306,-0.195 0.583,-0.403 0.836,-0.627 0.256,-0.224 0.586,-0.525 0.993,-0.908 0.167,-0.143 0.403,-0.216 0.713,-0.216 0.334,0 0.607,0.094 0.815,0.277 0.204,0.179 0.309,0.44 0.309,0.774 0,0.293 -0.118,0.635 -0.346,1.03 -0.232,0.391 -0.578,0.77 -1.047,1.129 -0.464,0.362 -1.047,0.663 -1.751,0.9 -0.705,0.24 -1.515,0.358 -2.428,0.358 -2.094,0 -3.719,-0.598 -4.88,-1.792 -1.161,-1.194 -1.739,-2.81 -1.739,-4.856 0,-0.961 0.142,-1.857 0.428,-2.68 0.285,-0.822 0.704,-1.527 1.25,-2.118 0.55,-0.586 1.226,-1.039 2.029,-1.352 0.802,-0.314 1.694,-0.473 2.672,-0.473 1.275,0 2.366,0.269 3.274,0.807 0.913,0.538 1.593,1.23 2.049,2.085 0.453,0.852 0.681,1.719 0.681,2.603 0,0.819 -0.237,1.353 -0.705,1.597 -0.469,0.241 -1.128,0.363 -1.98,0.363zm-6.374 -1.858l5.906 0c-0.077,-1.112 -0.379,-1.943 -0.9,-2.497 -0.522,-0.55 -1.206,-0.827 -2.057,-0.827 -0.815,0 -1.479,0.281 -2,0.839 -0.522,0.563 -0.839,1.389 -0.949,2.485z"/>
  </g>
  <g>
   <path id="_8" class="fil8 str1" d="M189.55 202.36l0 2.721c0,0.659 -0.154,1.152 -0.464,1.482 -0.31,0.33 -0.701,0.497 -1.177,0.497 -0.469,0 -0.856,-0.167 -1.157,-0.501 -0.301,-0.334 -0.452,-0.826 -0.452,-1.478l0 -9.072c0,-1.462 0.529,-2.195 1.584,-2.195 0.538,0 0.929,0.171 1.165,0.513 0.241,0.342 0.371,0.851 0.395,1.519 0.387,-0.668 0.786,-1.177 1.198,-1.519 0.411,-0.342 0.957,-0.513 1.641,-0.513 0.685,0 1.349,0.171 1.992,0.513 0.644,0.342 0.966,0.798 0.966,1.364 0,0.4 -0.135,0.726 -0.412,0.987 -0.273,0.26 -0.57,0.386 -0.888,0.386 -0.118,0 -0.407,-0.073 -0.863,-0.22 -0.46,-0.146 -0.864,-0.22 -1.214,-0.22 -0.477,0 -0.864,0.127 -1.169,0.375 -0.302,0.253 -0.538,0.623 -0.705,1.116 -0.167,0.493 -0.281,1.08 -0.346,1.76 -0.061,0.68 -0.094,1.507 -0.094,2.485z"/>
  </g>
  <g>
   <path id="_9" class="fil8 str1" d="M75.291 211.274l4.619 0c1.202,0 2.233,0.11 3.092,0.333 0.864,0.225 1.642,0.644 2.342,1.255 1.821,1.56 2.734,3.935 2.734,7.116 0,1.051 -0.09,2.008 -0.273,2.876 -0.184,0.868 -0.469,1.65 -0.848,2.346 -0.383,0.697 -0.871,1.32 -1.47,1.87 -0.469,0.419 -0.982,0.758 -1.54,1.01 -0.558,0.257 -1.157,0.436 -1.796,0.538 -0.64,0.102 -1.365,0.155 -2.167,0.155l-4.619 0c-0.644,0 -1.129,-0.098 -1.459,-0.294 -0.326,-0.195 -0.537,-0.468 -0.635,-0.822 -0.102,-0.355 -0.151,-0.815 -0.151,-1.377l0 -12.835c0,-0.762 0.171,-1.316 0.513,-1.658 0.343,-0.342 0.896,-0.513 1.658,-0.513zm1.373 2.81l0 11.878 2.688 0c0.587,0 1.051,-0.016 1.385,-0.049 0.334,-0.032 0.681,-0.11 1.039,-0.236 0.359,-0.131 0.668,-0.31 0.929,-0.538 1.185,-1.002 1.78,-2.729 1.78,-5.181 0,-1.727 -0.261,-3.023 -0.782,-3.882 -0.522,-0.859 -1.165,-1.405 -1.927,-1.641 -0.766,-0.233 -1.69,-0.351 -2.77,-0.351l-2.342 0z"/>
  </g>
  <g>
   <path id="_10" class="fil8 str1" d="M99.198 227.237c-0.791,0.611 -1.552,1.067 -2.285,1.373 -0.738,0.305 -1.565,0.456 -2.477,0.456 -0.835,0 -1.572,-0.167 -2.204,-0.497 -0.631,-0.33 -1.12,-0.774 -1.462,-1.34 -0.342,-0.567 -0.513,-1.177 -0.513,-1.837 0,-0.892 0.281,-1.65 0.847,-2.277 0.566,-0.632 1.344,-1.051 2.334,-1.267 0.204,-0.049 0.717,-0.155 1.536,-0.322 0.818,-0.167 1.523,-0.318 2.106,-0.46 0.582,-0.139 1.217,-0.306 1.902,-0.505 -0.041,-0.86 -0.212,-1.491 -0.518,-1.89 -0.309,-0.404 -0.941,-0.603 -1.906,-0.603 -0.827,0 -1.45,0.114 -1.866,0.346 -0.419,0.228 -0.777,0.575 -1.075,1.039 -0.297,0.46 -0.509,0.762 -0.631,0.912 -0.127,0.147 -0.391,0.22 -0.794,0.22 -0.367,0 -0.685,-0.118 -0.949,-0.354 -0.265,-0.232 -0.4,-0.534 -0.4,-0.9 0,-0.575 0.204,-1.133 0.607,-1.674 0.407,-0.542 1.039,-0.986 1.898,-1.336 0.86,-0.351 1.931,-0.526 3.214,-0.526 1.43,0 2.558,0.171 3.377,0.509 0.819,0.338 1.397,0.872 1.735,1.605 0.338,0.733 0.51,1.703 0.51,2.913 0,0.765 -0.005,1.413 -0.009,1.946 -0.004,0.534 -0.008,1.129 -0.016,1.781 0,0.611 0.102,1.25 0.305,1.914 0.204,0.66 0.302,1.088 0.302,1.279 0,0.334 -0.155,0.639 -0.469,0.912 -0.317,0.274 -0.672,0.412 -1.071,0.412 -0.334,0 -0.664,-0.155 -0.99,-0.468 -0.326,-0.314 -0.672,-0.766 -1.038,-1.361zm-0.216 -4.721c-0.477,0.175 -1.169,0.362 -2.082,0.554 -0.908,0.195 -1.539,0.342 -1.89,0.432 -0.35,0.093 -0.684,0.273 -1.002,0.537 -0.317,0.269 -0.476,0.64 -0.476,1.121 0,0.493 0.187,0.912 0.562,1.258 0.371,0.347 0.859,0.522 1.466,0.522 0.644,0 1.238,-0.143 1.78,-0.424 0.546,-0.285 0.945,-0.648 1.202,-1.096 0.293,-0.493 0.44,-1.307 0.44,-2.44l0 -0.464z"/>
  </g>
  <g>
   <path id="_11" class="fil8 str1" d="M105.059 216.113l0.358 0 0 -1.96c0,-0.525 0.013,-0.937 0.041,-1.234 0.029,-0.301 0.106,-0.558 0.233,-0.77 0.126,-0.224 0.309,-0.407 0.549,-0.545 0.237,-0.139 0.501,-0.208 0.799,-0.208 0.411,0 0.782,0.154 1.116,0.464 0.224,0.208 0.362,0.46 0.423,0.762 0.061,0.297 0.09,0.721 0.09,1.271l0 2.22 1.193 0c0.461,0 0.815,0.11 1.056,0.325 0.244,0.22 0.366,0.502 0.366,0.84 0,0.439 -0.175,0.745 -0.521,0.92 -0.347,0.175 -0.84,0.261 -1.487,0.261l-0.607 0 0 5.988c0,0.509 0.016,0.904 0.053,1.177 0.037,0.273 0.13,0.497 0.285,0.668 0.159,0.171 0.412,0.257 0.762,0.257 0.187,0 0.448,-0.033 0.774,-0.102 0.325,-0.065 0.582,-0.102 0.762,-0.102 0.264,0 0.5,0.106 0.712,0.317 0.212,0.213 0.314,0.473 0.314,0.783 0,0.525 -0.285,0.924 -0.856,1.201 -0.574,0.282 -1.397,0.42 -2.472,0.42 -1.018,0 -1.788,-0.171 -2.31,-0.513 -0.525,-0.342 -0.867,-0.815 -1.03,-1.422 -0.163,-0.603 -0.245,-1.409 -0.245,-2.42l0 -6.252 -0.427 0c-0.473,0 -0.831,-0.11 -1.075,-0.334 -0.249,-0.22 -0.371,-0.505 -0.371,-0.847 0,-0.338 0.13,-0.62 0.387,-0.84 0.26,-0.215 0.635,-0.325 1.128,-0.325z"/>
  </g>
  <g>
   <path id="_12" class="fil8 str1" d="M121.764 227.237c-0.791,0.611 -1.552,1.067 -2.285,1.373 -0.738,0.305 -1.565,0.456 -2.477,0.456 -0.835,0 -1.572,-0.167 -2.204,-0.497 -0.631,-0.33 -1.12,-0.774 -1.462,-1.34 -0.342,-0.567 -0.513,-1.177 -0.513,-1.837 0,-0.892 0.281,-1.65 0.847,-2.277 0.566,-0.632 1.344,-1.051 2.334,-1.267 0.204,-0.049 0.717,-0.155 1.536,-0.322 0.818,-0.167 1.523,-0.318 2.106,-0.46 0.582,-0.139 1.217,-0.306 1.902,-0.505 -0.041,-0.86 -0.212,-1.491 -0.517,-1.89 -0.31,-0.404 -0.942,-0.603 -1.907,-0.603 -0.827,0 -1.45,0.114 -1.865,0.346 -0.42,0.228 -0.778,0.575 -1.076,1.039 -0.297,0.46 -0.509,0.762 -0.631,0.912 -0.127,0.147 -0.391,0.22 -0.794,0.22 -0.367,0 -0.685,-0.118 -0.949,-0.354 -0.265,-0.232 -0.4,-0.534 -0.4,-0.9 0,-0.575 0.204,-1.133 0.607,-1.674 0.408,-0.542 1.039,-0.986 1.899,-1.336 0.859,-0.351 1.93,-0.526 3.213,-0.526 1.43,0 2.558,0.171 3.377,0.509 0.819,0.338 1.397,0.872 1.735,1.605 0.338,0.733 0.51,1.703 0.51,2.913 0,0.765 -0.005,1.413 -0.009,1.946 -0.004,0.534 -0.008,1.129 -0.016,1.781 0,0.611 0.102,1.25 0.305,1.914 0.204,0.66 0.302,1.088 0.302,1.279 0,0.334 -0.155,0.639 -0.469,0.912 -0.317,0.274 -0.672,0.412 -1.071,0.412 -0.334,0 -0.664,-0.155 -0.99,-0.468 -0.325,-0.314 -0.672,-0.766 -1.038,-1.361zm-0.216 -4.721c-0.477,0.175 -1.169,0.362 -2.082,0.554 -0.908,0.195 -1.539,0.342 -1.89,0.432 -0.35,0.093 -0.684,0.273 -1.002,0.537 -0.317,0.269 -0.476,0.64 -0.476,1.121 0,0.493 0.187,0.912 0.562,1.258 0.371,0.347 0.859,0.522 1.466,0.522 0.644,0 1.239,-0.143 1.78,-0.424 0.546,-0.285 0.945,-0.648 1.202,-1.096 0.293,-0.493 0.44,-1.307 0.44,-2.44l0 -0.464z"/>
  </g>
  <g>
   <path id="_13" class="fil8 str1" d="M130.737 212.842l0 4.978c0.611,-0.64 1.239,-1.129 1.874,-1.467 0.635,-0.338 1.426,-0.509 2.363,-0.509 1.083,0 2.032,0.257 2.847,0.77 0.815,0.513 1.446,1.258 1.894,2.232 0.452,0.973 0.676,2.13 0.676,3.466 0,0.986 -0.126,1.89 -0.375,2.713 -0.252,0.823 -0.615,1.54 -1.091,2.143 -0.477,0.607 -1.059,1.071 -1.74,1.401 -0.68,0.33 -1.429,0.497 -2.248,0.497 -0.501,0 -0.974,-0.061 -1.414,-0.179 -0.44,-0.119 -0.818,-0.277 -1.128,-0.473 -0.309,-0.191 -0.574,-0.395 -0.794,-0.603 -0.216,-0.203 -0.505,-0.513 -0.864,-0.929l0 0.322c0,0.611 -0.146,1.076 -0.439,1.389 -0.298,0.314 -0.673,0.473 -1.125,0.473 -0.46,0 -0.827,-0.159 -1.104,-0.473 -0.273,-0.313 -0.411,-0.778 -0.411,-1.389l0 -14.22c0,-0.66 0.134,-1.16 0.399,-1.499 0.269,-0.338 0.64,-0.505 1.116,-0.505 0.501,0 0.888,0.163 1.157,0.485 0.273,0.322 0.407,0.782 0.407,1.377zm0.155 9.678c0,1.295 0.298,2.289 0.888,2.986 0.595,0.697 1.369,1.043 2.33,1.043 0.819,0 1.528,-0.355 2.118,-1.068 0.591,-0.712 0.888,-1.731 0.888,-3.059 0,-0.855 -0.122,-1.597 -0.371,-2.216 -0.244,-0.619 -0.594,-1.1 -1.046,-1.437 -0.457,-0.339 -0.982,-0.506 -1.589,-0.506 -0.619,0 -1.169,0.167 -1.654,0.506 -0.484,0.337 -0.867,0.827 -1.144,1.466 -0.282,0.64 -0.42,1.401 -0.42,2.285z"/>
  </g>
  <g>
   <path id="_14" class="fil8 str1" d="M151.238 227.237c-0.79,0.611 -1.551,1.067 -2.285,1.373 -0.737,0.305 -1.564,0.456 -2.476,0.456 -0.835,0 -1.573,-0.167 -2.204,-0.497 -0.631,-0.33 -1.12,-0.774 -1.462,-1.34 -0.343,-0.567 -0.513,-1.177 -0.513,-1.837 0,-0.892 0.28,-1.65 0.847,-2.277 0.566,-0.632 1.344,-1.051 2.334,-1.267 0.204,-0.049 0.716,-0.155 1.535,-0.322 0.819,-0.167 1.524,-0.318 2.106,-0.46 0.583,-0.139 1.218,-0.306 1.903,-0.505 -0.041,-0.86 -0.212,-1.491 -0.518,-1.89 -0.309,-0.404 -0.941,-0.603 -1.906,-0.603 -0.827,0 -1.45,0.114 -1.866,0.346 -0.419,0.228 -0.778,0.575 -1.075,1.039 -0.297,0.46 -0.509,0.762 -0.632,0.912 -0.126,0.147 -0.39,0.22 -0.794,0.22 -0.366,0 -0.684,-0.118 -0.949,-0.354 -0.265,-0.232 -0.399,-0.534 -0.399,-0.9 0,-0.575 0.204,-1.133 0.607,-1.674 0.407,-0.542 1.039,-0.986 1.898,-1.336 0.86,-0.351 1.931,-0.526 3.214,-0.526 1.43,0 2.558,0.171 3.377,0.509 0.819,0.338 1.397,0.872 1.735,1.605 0.338,0.733 0.509,1.703 0.509,2.913 0,0.765 -0.004,1.413 -0.008,1.946 -0.004,0.534 -0.008,1.129 -0.016,1.781 0,0.611 0.101,1.25 0.305,1.914 0.204,0.66 0.302,1.088 0.302,1.279 0,0.334 -0.155,0.639 -0.469,0.912 -0.317,0.274 -0.672,0.412 -1.071,0.412 -0.334,0 -0.664,-0.155 -0.99,-0.468 -0.326,-0.314 -0.672,-0.766 -1.039,-1.361zm-0.215 -4.721c-0.477,0.175 -1.169,0.362 -2.082,0.554 -0.908,0.195 -1.54,0.342 -1.89,0.432 -0.35,0.093 -0.684,0.273 -1.002,0.537 -0.318,0.269 -0.476,0.64 -0.476,1.121 0,0.493 0.187,0.912 0.562,1.258 0.37,0.347 0.859,0.522 1.466,0.522 0.643,0 1.238,-0.143 1.78,-0.424 0.546,-0.285 0.945,-0.648 1.202,-1.096 0.293,-0.493 0.44,-1.307 0.44,-2.44l0 -0.464z"/>
  </g>
  <g>
   <path id="_15" class="fil8 str1" d="M168.012 224.813c0,0.896 -0.22,1.666 -0.655,2.306 -0.436,0.639 -1.084,1.124 -1.939,1.454 -0.856,0.33 -1.895,0.493 -3.121,0.493 -1.169,0 -2.171,-0.179 -3.006,-0.538 -0.835,-0.354 -1.45,-0.802 -1.849,-1.34 -0.395,-0.533 -0.595,-1.071 -0.595,-1.613 0,-0.359 0.127,-0.664 0.383,-0.916 0.253,-0.257 0.575,-0.383 0.965,-0.383 0.343,0 0.603,0.085 0.787,0.252 0.183,0.167 0.358,0.399 0.525,0.705 0.334,0.578 0.734,1.014 1.198,1.299 0.464,0.29 1.1,0.432 1.902,0.432 0.652,0 1.185,-0.147 1.601,-0.436 0.419,-0.289 0.627,-0.623 0.627,-0.998 0,-0.574 -0.216,-0.99 -0.647,-1.254 -0.436,-0.261 -1.149,-0.514 -2.143,-0.754 -1.12,-0.277 -2.033,-0.57 -2.737,-0.876 -0.701,-0.305 -1.263,-0.712 -1.687,-1.214 -0.419,-0.5 -0.631,-1.12 -0.631,-1.849 0,-0.656 0.196,-1.271 0.582,-1.853 0.391,-0.583 0.966,-1.043 1.727,-1.389 0.758,-0.346 1.674,-0.522 2.75,-0.522 0.843,0 1.601,0.086 2.269,0.261 0.672,0.175 1.234,0.411 1.682,0.705 0.452,0.297 0.794,0.623 1.027,0.982 0.236,0.358 0.354,0.704 0.354,1.05 0,0.371 -0.126,0.681 -0.379,0.917 -0.249,0.24 -0.607,0.359 -1.067,0.359 -0.334,0 -0.619,-0.094 -0.855,-0.286 -0.233,-0.191 -0.502,-0.476 -0.807,-0.859 -0.245,-0.318 -0.534,-0.575 -0.867,-0.766 -0.335,-0.192 -0.787,-0.285 -1.361,-0.285 -0.587,0 -1.075,0.126 -1.467,0.375 -0.387,0.252 -0.582,0.566 -0.582,0.941 0,0.342 0.143,0.623 0.427,0.839 0.29,0.22 0.673,0.403 1.157,0.545 0.485,0.143 1.153,0.318 2.005,0.526 1.01,0.244 1.837,0.542 2.476,0.884 0.64,0.342 1.124,0.745 1.454,1.213 0.33,0.465 0.497,0.994 0.497,1.593z"/>
  </g>
  <g>
   <path id="_16" class="fil8 str1" d="M179.862 223.249l-6.375 0c0.008,0.741 0.159,1.393 0.448,1.96 0.289,0.566 0.676,0.989 1.157,1.274 0.481,0.289 1.014,0.432 1.593,0.432 0.39,0 0.745,-0.045 1.067,-0.138 0.326,-0.09 0.635,-0.232 0.936,-0.428 0.306,-0.196 0.583,-0.403 0.836,-0.627 0.256,-0.224 0.586,-0.526 0.993,-0.909 0.167,-0.142 0.404,-0.216 0.713,-0.216 0.334,0 0.607,0.094 0.815,0.277 0.204,0.18 0.31,0.44 0.31,0.774 0,0.294 -0.119,0.636 -0.347,1.031 -0.232,0.391 -0.578,0.77 -1.047,1.128 -0.464,0.363 -1.046,0.664 -1.751,0.901 -0.705,0.24 -1.515,0.358 -2.428,0.358 -2.093,0 -3.719,-0.599 -4.88,-1.792 -1.16,-1.194 -1.739,-2.811 -1.739,-4.856 0,-0.961 0.142,-1.857 0.428,-2.68 0.285,-0.823 0.704,-1.528 1.25,-2.118 0.55,-0.587 1.226,-1.039 2.029,-1.352 0.802,-0.314 1.694,-0.473 2.672,-0.473 1.275,0 2.366,0.269 3.275,0.806 0.912,0.538 1.592,1.231 2.049,2.086 0.452,0.851 0.68,1.719 0.68,2.603 0,0.819 -0.236,1.352 -0.705,1.597 -0.468,0.24 -1.128,0.362 -1.979,0.362zm-6.375 -1.857l5.906 0c-0.077,-1.112 -0.379,-1.943 -0.9,-2.497 -0.522,-0.55 -1.206,-0.827 -2.057,-0.827 -0.815,0 -1.479,0.281 -2,0.839 -0.521,0.562 -0.839,1.389 -0.949,2.485z"/>
  </g>
  <path id="_17" class="fil9" d="M74.658 201.521c0,1.055 -0.273,2.004 -0.819,2.847 -0.542,0.843 -1.34,1.503 -2.391,1.979 -1.051,0.477 -2.298,0.713 -3.735,0.713 -1.728,0 -3.153,-0.325 -4.274,-0.973 -0.794,-0.469 -1.437,-1.096 -1.934,-1.878 -0.497,-0.782 -0.746,-1.544 -0.746,-2.285 0,-0.428 0.151,-0.795 0.448,-1.104 0.298,-0.305 0.676,-0.456 1.137,-0.456 0.375,0 0.688,0.118 0.945,0.358 0.26,0.237 0.48,0.591 0.664,1.063 0.22,0.554 0.464,1.023 0.721,1.393 0.261,0.375 0.623,0.685 1.091,0.929 0.473,0.24 1.088,0.363 1.854,0.363 1.047,0 1.902,-0.245 2.558,-0.733 0.656,-0.489 0.986,-1.1 0.986,-1.833 0,-0.583 -0.175,-1.055 -0.53,-1.414 -0.354,-0.362 -0.814,-0.64 -1.377,-0.831 -0.558,-0.191 -1.311,-0.395 -2.248,-0.611 -1.255,-0.293 -2.31,-0.639 -3.153,-1.031 -0.847,-0.395 -1.519,-0.932 -2.016,-1.613 -0.497,-0.68 -0.746,-1.523 -0.746,-2.537 0,-0.961 0.261,-1.817 0.787,-2.567 0.525,-0.745 1.287,-1.319 2.281,-1.722 0.993,-0.404 2.163,-0.603 3.507,-0.603 1.071,0 2,0.134 2.786,0.399 0.782,0.269 1.434,0.623 1.951,1.063 0.513,0.44 0.892,0.904 1.132,1.389 0.236,0.485 0.359,0.961 0.359,1.422 0,0.419 -0.151,0.802 -0.448,1.14 -0.298,0.338 -0.672,0.505 -1.116,0.505 -0.408,0 -0.713,-0.101 -0.925,-0.301 -0.212,-0.204 -0.44,-0.538 -0.684,-0.998 -0.322,-0.66 -0.701,-1.177 -1.149,-1.548 -0.444,-0.371 -1.161,-0.554 -2.151,-0.554 -0.912,0 -1.653,0.2 -2.212,0.603 -0.562,0.403 -0.843,0.884 -0.843,1.45 0,0.35 0.094,0.652 0.285,0.908 0.192,0.253 0.457,0.473 0.791,0.656 0.334,0.183 0.672,0.326 1.014,0.432 0.342,0.102 0.908,0.253 1.695,0.452 0.985,0.232 1.881,0.485 2.68,0.766 0.798,0.277 1.478,0.615 2.041,1.014 0.562,0.395 0.997,0.9 1.311,1.507 0.314,0.611 0.473,1.357 0.473,2.241z"/>
  <path id="_18" class="fil9" d="M91.733 204.596c0.517,0.35 1.083,0.688 1.694,1.018 0.615,0.33 1.019,0.591 1.218,0.786 0.2,0.196 0.298,0.473 0.298,0.827 0,0.257 -0.114,0.509 -0.351,0.766 -0.236,0.253 -0.517,0.379 -0.851,0.379 -0.273,0 -0.603,-0.086 -0.986,-0.261 -0.387,-0.175 -0.839,-0.432 -1.36,-0.766 -0.521,-0.333 -1.092,-0.72 -1.715,-1.165 -1.153,0.587 -2.566,0.88 -4.244,0.88 -1.361,0 -2.579,-0.215 -3.658,-0.651 -1.075,-0.432 -1.984,-1.056 -2.713,-1.87 -0.733,-0.819 -1.283,-1.784 -1.654,-2.908 -0.37,-1.121 -0.554,-2.343 -0.554,-3.662 0,-1.345 0.191,-2.575 0.578,-3.699 0.388,-1.12 0.946,-2.073 1.679,-2.863 0.729,-0.787 1.621,-1.389 2.672,-1.805 1.047,-0.42 2.24,-0.627 3.576,-0.627 1.817,0 3.373,0.366 4.673,1.103 1.299,0.738 2.285,1.781 2.953,3.137 0.668,1.357 1.001,2.953 1.001,4.782 0,2.774 -0.753,4.974 -2.256,6.599zm-2.778 -1.935c0.493,-0.562 0.855,-1.234 1.092,-2.004 0.232,-0.774 0.35,-1.67 0.35,-2.688 0,-1.279 -0.208,-2.391 -0.619,-3.328 -0.416,-0.941 -1.006,-1.65 -1.772,-2.135 -0.766,-0.48 -1.65,-0.721 -2.644,-0.721 -0.705,0 -1.36,0.135 -1.959,0.399 -0.603,0.269 -1.12,0.656 -1.552,1.165 -0.432,0.51 -0.774,1.161 -1.026,1.952 -0.249,0.794 -0.375,1.682 -0.375,2.668 0,2.016 0.468,3.564 1.409,4.651 0.937,1.088 2.122,1.63 3.552,1.63 0.591,0 1.194,-0.123 1.813,-0.371 -0.375,-0.277 -0.839,-0.558 -1.401,-0.835 -0.562,-0.277 -0.946,-0.493 -1.149,-0.643 -0.208,-0.151 -0.314,-0.367 -0.314,-0.648 0,-0.237 0.102,-0.448 0.302,-0.631 0.195,-0.184 0.415,-0.273 0.655,-0.273 0.721,0 1.935,0.602 3.638,1.812z"/>
  <path id="_19" class="fil9" d="M100.491 191.121l0 12.738 7.185 0c0.57,0 1.01,0.138 1.316,0.415 0.309,0.281 0.46,0.632 0.46,1.051 0,0.428 -0.151,0.778 -0.452,1.043 -0.302,0.264 -0.745,0.399 -1.324,0.399l-8.558 0c-0.77,0 -1.324,-0.171 -1.662,-0.513 -0.338,-0.342 -0.509,-0.896 -0.509,-1.658l0 -13.475c0,-0.713 0.163,-1.25 0.484,-1.609 0.323,-0.358 0.746,-0.537 1.272,-0.537 0.529,0 0.961,0.175 1.291,0.529 0.33,0.355 0.497,0.897 0.497,1.617z"/>
  <path id="_20" class="fil9" d="M131.187 201.521c0,1.055 -0.273,2.004 -0.818,2.847 -0.542,0.843 -1.341,1.503 -2.392,1.979 -1.05,0.477 -2.297,0.713 -3.735,0.713 -1.727,0 -3.153,-0.325 -4.273,-0.973 -0.794,-0.469 -1.437,-1.096 -1.934,-1.878 -0.498,-0.782 -0.746,-1.544 -0.746,-2.285 0,-0.428 0.151,-0.795 0.448,-1.104 0.298,-0.305 0.676,-0.456 1.137,-0.456 0.374,0 0.688,0.118 0.944,0.358 0.261,0.237 0.481,0.591 0.665,1.063 0.219,0.554 0.464,1.023 0.721,1.393 0.26,0.375 0.623,0.685 1.091,0.929 0.473,0.24 1.088,0.363 1.854,0.363 1.047,0 1.902,-0.245 2.558,-0.733 0.655,-0.489 0.985,-1.1 0.985,-1.833 0,-0.583 -0.175,-1.055 -0.529,-1.414 -0.355,-0.362 -0.815,-0.64 -1.377,-0.831 -0.558,-0.191 -1.312,-0.395 -2.248,-0.611 -1.255,-0.293 -2.31,-0.639 -3.153,-1.031 -0.847,-0.395 -1.519,-0.932 -2.016,-1.613 -0.497,-0.68 -0.746,-1.523 -0.746,-2.537 0,-0.961 0.261,-1.817 0.786,-2.567 0.526,-0.745 1.287,-1.319 2.281,-1.722 0.994,-0.404 2.163,-0.603 3.507,-0.603 1.072,0 2.001,0.134 2.787,0.399 0.782,0.269 1.433,0.623 1.951,1.063 0.513,0.44 0.892,0.904 1.132,1.389 0.236,0.485 0.359,0.961 0.359,1.422 0,0.419 -0.151,0.802 -0.449,1.14 -0.297,0.338 -0.672,0.505 -1.116,0.505 -0.407,0 -0.712,-0.101 -0.924,-0.301 -0.212,-0.204 -0.44,-0.538 -0.685,-0.998 -0.321,-0.66 -0.7,-1.177 -1.148,-1.548 -0.444,-0.371 -1.161,-0.554 -2.151,-0.554 -0.913,0 -1.654,0.2 -2.212,0.603 -0.562,0.403 -0.843,0.884 -0.843,1.45 0,0.35 0.094,0.652 0.285,0.908 0.191,0.253 0.456,0.473 0.791,0.656 0.333,0.183 0.672,0.326 1.014,0.432 0.342,0.102 0.908,0.253 1.694,0.452 0.986,0.232 1.882,0.485 2.68,0.766 0.799,0.277 1.479,0.615 2.041,1.014 0.562,0.395 0.998,0.9 1.312,1.507 0.314,0.611 0.472,1.357 0.472,2.241z"/>
  <path id="_21" class="fil9" d="M143.061 201.244l-6.374 0c0.007,0.741 0.158,1.393 0.447,1.959 0.29,0.566 0.677,0.99 1.157,1.275 0.481,0.289 1.014,0.432 1.593,0.432 0.391,0 0.745,-0.045 1.067,-0.139 0.326,-0.09 0.636,-0.232 0.937,-0.428 0.305,-0.195 0.582,-0.403 0.835,-0.627 0.256,-0.224 0.586,-0.525 0.994,-0.908 0.167,-0.143 0.403,-0.216 0.713,-0.216 0.334,0 0.607,0.094 0.815,0.277 0.203,0.179 0.309,0.44 0.309,0.774 0,0.293 -0.118,0.635 -0.346,1.03 -0.233,0.391 -0.579,0.77 -1.047,1.129 -0.465,0.362 -1.047,0.663 -1.752,0.9 -0.704,0.24 -1.515,0.358 -2.427,0.358 -2.094,0 -3.719,-0.598 -4.88,-1.792 -1.161,-1.194 -1.74,-2.81 -1.74,-4.856 0,-0.961 0.143,-1.857 0.428,-2.68 0.285,-0.822 0.705,-1.527 1.251,-2.118 0.549,-0.586 1.226,-1.039 2.028,-1.352 0.803,-0.314 1.695,-0.473 2.673,-0.473 1.274,0 2.366,0.269 3.274,0.807 0.913,0.538 1.593,1.23 2.049,2.085 0.452,0.852 0.68,1.719 0.68,2.603 0,0.819 -0.236,1.353 -0.704,1.597 -0.469,0.241 -1.128,0.363 -1.98,0.363zm-6.374 -1.858l5.906 0c-0.078,-1.112 -0.379,-1.943 -0.901,-2.497 -0.521,-0.55 -1.205,-0.827 -2.057,-0.827 -0.814,0 -1.478,0.281 -1.999,0.839 -0.522,0.563 -0.84,1.389 -0.949,2.485z"/>
  <path id="_22" class="fil9" d="M151.721 202.36l0 2.721c0,0.659 -0.155,1.152 -0.464,1.482 -0.31,0.33 -0.701,0.497 -1.178,0.497 -0.468,0 -0.855,-0.167 -1.157,-0.501 -0.301,-0.334 -0.452,-0.826 -0.452,-1.478l0 -9.072c0,-1.462 0.53,-2.195 1.585,-2.195 0.538,0 0.929,0.171 1.165,0.513 0.24,0.342 0.371,0.851 0.395,1.519 0.387,-0.668 0.786,-1.177 1.198,-1.519 0.411,-0.342 0.957,-0.513 1.641,-0.513 0.685,0 1.348,0.171 1.992,0.513 0.644,0.342 0.965,0.798 0.965,1.364 0,0.4 -0.134,0.726 -0.411,0.987 -0.273,0.26 -0.57,0.386 -0.888,0.386 -0.118,0 -0.407,-0.073 -0.863,-0.22 -0.461,-0.146 -0.864,-0.22 -1.214,-0.22 -0.477,0 -0.864,0.127 -1.169,0.375 -0.302,0.253 -0.538,0.623 -0.705,1.116 -0.167,0.493 -0.281,1.08 -0.347,1.76 -0.06,0.68 -0.093,1.507 -0.093,2.485z"/>
  <path id="_23" class="fil9" d="M161.179 195.842l2.636 7.406 2.839 -7.727c0.224,-0.619 0.44,-1.059 0.656,-1.32 0.216,-0.257 0.541,-0.387 0.977,-0.387 0.416,0 0.766,0.139 1.055,0.419 0.29,0.277 0.436,0.599 0.436,0.966 0,0.142 -0.024,0.309 -0.077,0.501 -0.053,0.191 -0.11,0.371 -0.179,0.538 -0.07,0.166 -0.147,0.358 -0.232,0.57l-3.125 7.759c-0.09,0.22 -0.2,0.506 -0.342,0.848 -0.138,0.342 -0.293,0.631 -0.464,0.875 -0.171,0.245 -0.383,0.432 -0.632,0.567 -0.252,0.134 -0.554,0.203 -0.912,0.203 -0.46,0 -0.827,-0.106 -1.104,-0.318 -0.273,-0.207 -0.477,-0.439 -0.607,-0.692 -0.13,-0.248 -0.354,-0.745 -0.664,-1.483l-3.1 -7.674c-0.073,-0.191 -0.146,-0.383 -0.22,-0.574 -0.077,-0.191 -0.138,-0.383 -0.191,-0.583 -0.053,-0.199 -0.077,-0.37 -0.077,-0.513 0,-0.224 0.069,-0.444 0.203,-0.664 0.134,-0.22 0.322,-0.399 0.558,-0.537 0.24,-0.139 0.497,-0.208 0.778,-0.208 0.538,0 0.913,0.155 1.116,0.464 0.2,0.314 0.424,0.835 0.672,1.564z"/>
  <path id="_24" class="fil9" d="M180.89 201.244l-6.374 0c0.008,0.741 0.159,1.393 0.448,1.959 0.289,0.566 0.676,0.99 1.157,1.275 0.48,0.289 1.014,0.432 1.592,0.432 0.391,0 0.746,-0.045 1.067,-0.139 0.326,-0.09 0.636,-0.232 0.937,-0.428 0.306,-0.195 0.583,-0.403 0.836,-0.627 0.256,-0.224 0.586,-0.525 0.993,-0.908 0.167,-0.143 0.403,-0.216 0.713,-0.216 0.334,0 0.607,0.094 0.815,0.277 0.204,0.179 0.309,0.44 0.309,0.774 0,0.293 -0.118,0.635 -0.346,1.03 -0.232,0.391 -0.578,0.77 -1.047,1.129 -0.464,0.362 -1.047,0.663 -1.751,0.9 -0.705,0.24 -1.515,0.358 -2.428,0.358 -2.094,0 -3.719,-0.598 -4.88,-1.792 -1.161,-1.194 -1.739,-2.81 -1.739,-4.856 0,-0.961 0.142,-1.857 0.428,-2.68 0.285,-0.822 0.704,-1.527 1.25,-2.118 0.55,-0.586 1.226,-1.039 2.029,-1.352 0.802,-0.314 1.694,-0.473 2.672,-0.473 1.275,0 2.366,0.269 3.274,0.807 0.913,0.538 1.593,1.23 2.049,2.085 0.453,0.852 0.681,1.719 0.681,2.603 0,0.819 -0.237,1.353 -0.705,1.597 -0.469,0.241 -1.128,0.363 -1.98,0.363zm-6.374 -1.858l5.906 0c-0.077,-1.112 -0.379,-1.943 -0.9,-2.497 -0.522,-0.55 -1.206,-0.827 -2.057,-0.827 -0.815,0 -1.479,0.281 -2,0.839 -0.522,0.563 -0.839,1.389 -0.949,2.485z"/>
  <path id="_25" class="fil9" d="M189.55 202.36l0 2.721c0,0.659 -0.154,1.152 -0.464,1.482 -0.31,0.33 -0.701,0.497 -1.177,0.497 -0.469,0 -0.856,-0.167 -1.157,-0.501 -0.301,-0.334 -0.452,-0.826 -0.452,-1.478l0 -9.072c0,-1.462 0.529,-2.195 1.584,-2.195 0.538,0 0.929,0.171 1.165,0.513 0.241,0.342 0.371,0.851 0.395,1.519 0.387,-0.668 0.786,-1.177 1.198,-1.519 0.411,-0.342 0.957,-0.513 1.641,-0.513 0.685,0 1.349,0.171 1.992,0.513 0.644,0.342 0.966,0.798 0.966,1.364 0,0.4 -0.135,0.726 -0.412,0.987 -0.273,0.26 -0.57,0.386 -0.888,0.386 -0.118,0 -0.407,-0.073 -0.863,-0.22 -0.46,-0.146 -0.864,-0.22 -1.214,-0.22 -0.477,0 -0.864,0.127 -1.169,0.375 -0.302,0.253 -0.538,0.623 -0.705,1.116 -0.167,0.493 -0.281,1.08 -0.346,1.76 -0.061,0.68 -0.094,1.507 -0.094,2.485z"/>
  <path id="_26" class="fil9" d="M75.291 211.274l4.619 0c1.202,0 2.233,0.11 3.092,0.333 0.864,0.225 1.642,0.644 2.342,1.255 1.821,1.56 2.734,3.935 2.734,7.116 0,1.051 -0.09,2.008 -0.273,2.876 -0.184,0.868 -0.469,1.65 -0.848,2.346 -0.383,0.697 -0.871,1.32 -1.47,1.87 -0.469,0.419 -0.982,0.758 -1.54,1.01 -0.558,0.257 -1.157,0.436 -1.796,0.538 -0.64,0.102 -1.365,0.155 -2.167,0.155l-4.619 0c-0.644,0 -1.129,-0.098 -1.459,-0.294 -0.326,-0.195 -0.537,-0.468 -0.635,-0.822 -0.102,-0.355 -0.151,-0.815 -0.151,-1.377l0 -12.835c0,-0.762 0.171,-1.316 0.513,-1.658 0.343,-0.342 0.896,-0.513 1.658,-0.513zm1.373 2.81l0 11.878 2.688 0c0.587,0 1.051,-0.016 1.385,-0.049 0.334,-0.032 0.681,-0.11 1.039,-0.236 0.359,-0.131 0.668,-0.31 0.929,-0.538 1.185,-1.002 1.78,-2.729 1.78,-5.181 0,-1.727 -0.261,-3.023 -0.782,-3.882 -0.522,-0.859 -1.165,-1.405 -1.927,-1.641 -0.766,-0.233 -1.69,-0.351 -2.77,-0.351l-2.342 0z"/>
  <path id="_27" class="fil9" d="M99.198 227.237c-0.791,0.611 -1.552,1.067 -2.285,1.373 -0.738,0.305 -1.565,0.456 -2.477,0.456 -0.835,0 -1.572,-0.167 -2.204,-0.497 -0.631,-0.33 -1.12,-0.774 -1.462,-1.34 -0.342,-0.567 -0.513,-1.177 -0.513,-1.837 0,-0.892 0.281,-1.65 0.847,-2.277 0.566,-0.632 1.344,-1.051 2.334,-1.267 0.204,-0.049 0.717,-0.155 1.536,-0.322 0.818,-0.167 1.523,-0.318 2.106,-0.46 0.582,-0.139 1.217,-0.306 1.902,-0.505 -0.041,-0.86 -0.212,-1.491 -0.518,-1.89 -0.309,-0.404 -0.941,-0.603 -1.906,-0.603 -0.827,0 -1.45,0.114 -1.866,0.346 -0.419,0.228 -0.777,0.575 -1.075,1.039 -0.297,0.46 -0.509,0.762 -0.631,0.912 -0.127,0.147 -0.391,0.22 -0.794,0.22 -0.367,0 -0.685,-0.118 -0.949,-0.354 -0.265,-0.232 -0.4,-0.534 -0.4,-0.9 0,-0.575 0.204,-1.133 0.607,-1.674 0.407,-0.542 1.039,-0.986 1.898,-1.336 0.86,-0.351 1.931,-0.526 3.214,-0.526 1.43,0 2.558,0.171 3.377,0.509 0.819,0.338 1.397,0.872 1.735,1.605 0.338,0.733 0.51,1.703 0.51,2.913 0,0.765 -0.005,1.413 -0.009,1.946 -0.004,0.534 -0.008,1.129 -0.016,1.781 0,0.611 0.102,1.25 0.305,1.914 0.204,0.66 0.302,1.088 0.302,1.279 0,0.334 -0.155,0.639 -0.469,0.912 -0.317,0.274 -0.672,0.412 -1.071,0.412 -0.334,0 -0.664,-0.155 -0.99,-0.468 -0.326,-0.314 -0.672,-0.766 -1.038,-1.361zm-0.216 -4.721c-0.477,0.175 -1.169,0.362 -2.082,0.554 -0.908,0.195 -1.539,0.342 -1.89,0.432 -0.35,0.093 -0.684,0.273 -1.002,0.537 -0.317,0.269 -0.476,0.64 -0.476,1.121 0,0.493 0.187,0.912 0.562,1.258 0.371,0.347 0.859,0.522 1.466,0.522 0.644,0 1.238,-0.143 1.78,-0.424 0.546,-0.285 0.945,-0.648 1.202,-1.096 0.293,-0.493 0.44,-1.307 0.44,-2.44l0 -0.464z"/>
  <path id="_28" class="fil9" d="M105.059 216.113l0.358 0 0 -1.96c0,-0.525 0.013,-0.937 0.041,-1.234 0.029,-0.301 0.106,-0.558 0.233,-0.77 0.126,-0.224 0.309,-0.407 0.549,-0.545 0.237,-0.139 0.501,-0.208 0.799,-0.208 0.411,0 0.782,0.154 1.116,0.464 0.224,0.208 0.362,0.46 0.423,0.762 0.061,0.297 0.09,0.721 0.09,1.271l0 2.22 1.193 0c0.461,0 0.815,0.11 1.056,0.325 0.244,0.22 0.366,0.502 0.366,0.84 0,0.439 -0.175,0.745 -0.521,0.92 -0.347,0.175 -0.84,0.261 -1.487,0.261l-0.607 0 0 5.988c0,0.509 0.016,0.904 0.053,1.177 0.037,0.273 0.13,0.497 0.285,0.668 0.159,0.171 0.412,0.257 0.762,0.257 0.187,0 0.448,-0.033 0.774,-0.102 0.325,-0.065 0.582,-0.102 0.762,-0.102 0.264,0 0.5,0.106 0.712,0.317 0.212,0.213 0.314,0.473 0.314,0.783 0,0.525 -0.285,0.924 -0.856,1.201 -0.574,0.282 -1.397,0.42 -2.472,0.42 -1.018,0 -1.788,-0.171 -2.31,-0.513 -0.525,-0.342 -0.867,-0.815 -1.03,-1.422 -0.163,-0.603 -0.245,-1.409 -0.245,-2.42l0 -6.252 -0.427 0c-0.473,0 -0.831,-0.11 -1.075,-0.334 -0.249,-0.22 -0.371,-0.505 -0.371,-0.847 0,-0.338 0.13,-0.62 0.387,-0.84 0.26,-0.215 0.635,-0.325 1.128,-0.325z"/>
  <path id="_29" class="fil9" d="M121.764 227.237c-0.791,0.611 -1.552,1.067 -2.285,1.373 -0.738,0.305 -1.565,0.456 -2.477,0.456 -0.835,0 -1.572,-0.167 -2.204,-0.497 -0.631,-0.33 -1.12,-0.774 -1.462,-1.34 -0.342,-0.567 -0.513,-1.177 -0.513,-1.837 0,-0.892 0.281,-1.65 0.847,-2.277 0.566,-0.632 1.344,-1.051 2.334,-1.267 0.204,-0.049 0.717,-0.155 1.536,-0.322 0.818,-0.167 1.523,-0.318 2.106,-0.46 0.582,-0.139 1.217,-0.306 1.902,-0.505 -0.041,-0.86 -0.212,-1.491 -0.517,-1.89 -0.31,-0.404 -0.942,-0.603 -1.907,-0.603 -0.827,0 -1.45,0.114 -1.865,0.346 -0.42,0.228 -0.778,0.575 -1.076,1.039 -0.297,0.46 -0.509,0.762 -0.631,0.912 -0.127,0.147 -0.391,0.22 -0.794,0.22 -0.367,0 -0.685,-0.118 -0.949,-0.354 -0.265,-0.232 -0.4,-0.534 -0.4,-0.9 0,-0.575 0.204,-1.133 0.607,-1.674 0.408,-0.542 1.039,-0.986 1.899,-1.336 0.859,-0.351 1.93,-0.526 3.213,-0.526 1.43,0 2.558,0.171 3.377,0.509 0.819,0.338 1.397,0.872 1.735,1.605 0.338,0.733 0.51,1.703 0.51,2.913 0,0.765 -0.005,1.413 -0.009,1.946 -0.004,0.534 -0.008,1.129 -0.016,1.781 0,0.611 0.102,1.25 0.305,1.914 0.204,0.66 0.302,1.088 0.302,1.279 0,0.334 -0.155,0.639 -0.469,0.912 -0.317,0.274 -0.672,0.412 -1.071,0.412 -0.334,0 -0.664,-0.155 -0.99,-0.468 -0.325,-0.314 -0.672,-0.766 -1.038,-1.361zm-0.216 -4.721c-0.477,0.175 -1.169,0.362 -2.082,0.554 -0.908,0.195 -1.539,0.342 -1.89,0.432 -0.35,0.093 -0.684,0.273 -1.002,0.537 -0.317,0.269 -0.476,0.64 -0.476,1.121 0,0.493 0.187,0.912 0.562,1.258 0.371,0.347 0.859,0.522 1.466,0.522 0.644,0 1.239,-0.143 1.78,-0.424 0.546,-0.285 0.945,-0.648 1.202,-1.096 0.293,-0.493 0.44,-1.307 0.44,-2.44l0 -0.464z"/>
  <path id="_30" class="fil9" d="M130.737 212.842l0 4.978c0.611,-0.64 1.239,-1.129 1.874,-1.467 0.635,-0.338 1.426,-0.509 2.363,-0.509 1.083,0 2.032,0.257 2.847,0.77 0.815,0.513 1.446,1.258 1.894,2.232 0.452,0.973 0.676,2.13 0.676,3.466 0,0.986 -0.126,1.89 -0.375,2.713 -0.252,0.823 -0.615,1.54 -1.091,2.143 -0.477,0.607 -1.059,1.071 -1.74,1.401 -0.68,0.33 -1.429,0.497 -2.248,0.497 -0.501,0 -0.974,-0.061 -1.414,-0.179 -0.44,-0.119 -0.818,-0.277 -1.128,-0.473 -0.309,-0.191 -0.574,-0.395 -0.794,-0.603 -0.216,-0.203 -0.505,-0.513 -0.864,-0.929l0 0.322c0,0.611 -0.146,1.076 -0.439,1.389 -0.298,0.314 -0.673,0.473 -1.125,0.473 -0.46,0 -0.827,-0.159 -1.104,-0.473 -0.273,-0.313 -0.411,-0.778 -0.411,-1.389l0 -14.22c0,-0.66 0.134,-1.16 0.399,-1.499 0.269,-0.338 0.64,-0.505 1.116,-0.505 0.501,0 0.888,0.163 1.157,0.485 0.273,0.322 0.407,0.782 0.407,1.377zm0.155 9.678c0,1.295 0.298,2.289 0.888,2.986 0.595,0.697 1.369,1.043 2.33,1.043 0.819,0 1.528,-0.355 2.118,-1.068 0.591,-0.712 0.888,-1.731 0.888,-3.059 0,-0.855 -0.122,-1.597 -0.371,-2.216 -0.244,-0.619 -0.594,-1.1 -1.046,-1.437 -0.457,-0.339 -0.982,-0.506 -1.589,-0.506 -0.619,0 -1.169,0.167 -1.654,0.506 -0.484,0.337 -0.867,0.827 -1.144,1.466 -0.282,0.64 -0.42,1.401 -0.42,2.285z"/>
  <path id="_31" class="fil9" d="M151.238 227.237c-0.79,0.611 -1.551,1.067 -2.285,1.373 -0.737,0.305 -1.564,0.456 -2.476,0.456 -0.835,0 -1.573,-0.167 -2.204,-0.497 -0.631,-0.33 -1.12,-0.774 -1.462,-1.34 -0.343,-0.567 -0.513,-1.177 -0.513,-1.837 0,-0.892 0.28,-1.65 0.847,-2.277 0.566,-0.632 1.344,-1.051 2.334,-1.267 0.204,-0.049 0.716,-0.155 1.535,-0.322 0.819,-0.167 1.524,-0.318 2.106,-0.46 0.583,-0.139 1.218,-0.306 1.903,-0.505 -0.041,-0.86 -0.212,-1.491 -0.518,-1.89 -0.309,-0.404 -0.941,-0.603 -1.906,-0.603 -0.827,0 -1.45,0.114 -1.866,0.346 -0.419,0.228 -0.778,0.575 -1.075,1.039 -0.297,0.46 -0.509,0.762 -0.632,0.912 -0.126,0.147 -0.39,0.22 -0.794,0.22 -0.366,0 -0.684,-0.118 -0.949,-0.354 -0.265,-0.232 -0.399,-0.534 -0.399,-0.9 0,-0.575 0.204,-1.133 0.607,-1.674 0.407,-0.542 1.039,-0.986 1.898,-1.336 0.86,-0.351 1.931,-0.526 3.214,-0.526 1.43,0 2.558,0.171 3.377,0.509 0.819,0.338 1.397,0.872 1.735,1.605 0.338,0.733 0.509,1.703 0.509,2.913 0,0.765 -0.004,1.413 -0.008,1.946 -0.004,0.534 -0.008,1.129 -0.016,1.781 0,0.611 0.101,1.25 0.305,1.914 0.204,0.66 0.302,1.088 0.302,1.279 0,0.334 -0.155,0.639 -0.469,0.912 -0.317,0.274 -0.672,0.412 -1.071,0.412 -0.334,0 -0.664,-0.155 -0.99,-0.468 -0.326,-0.314 -0.672,-0.766 -1.039,-1.361zm-0.215 -4.721c-0.477,0.175 -1.169,0.362 -2.082,0.554 -0.908,0.195 -1.54,0.342 -1.89,0.432 -0.35,0.093 -0.684,0.273 -1.002,0.537 -0.318,0.269 -0.476,0.64 -0.476,1.121 0,0.493 0.187,0.912 0.562,1.258 0.37,0.347 0.859,0.522 1.466,0.522 0.643,0 1.238,-0.143 1.78,-0.424 0.546,-0.285 0.945,-0.648 1.202,-1.096 0.293,-0.493 0.44,-1.307 0.44,-2.44l0 -0.464z"/>
  <path id="_32" class="fil9" d="M168.012 224.813c0,0.896 -0.22,1.666 -0.655,2.306 -0.436,0.639 -1.084,1.124 -1.939,1.454 -0.856,0.33 -1.895,0.493 -3.121,0.493 -1.169,0 -2.171,-0.179 -3.006,-0.538 -0.835,-0.354 -1.45,-0.802 -1.849,-1.34 -0.395,-0.533 -0.595,-1.071 -0.595,-1.613 0,-0.359 0.127,-0.664 0.383,-0.916 0.253,-0.257 0.575,-0.383 0.965,-0.383 0.343,0 0.603,0.085 0.787,0.252 0.183,0.167 0.358,0.399 0.525,0.705 0.334,0.578 0.734,1.014 1.198,1.299 0.464,0.29 1.1,0.432 1.902,0.432 0.652,0 1.185,-0.147 1.601,-0.436 0.419,-0.289 0.627,-0.623 0.627,-0.998 0,-0.574 -0.216,-0.99 -0.647,-1.254 -0.436,-0.261 -1.149,-0.514 -2.143,-0.754 -1.12,-0.277 -2.033,-0.57 -2.737,-0.876 -0.701,-0.305 -1.263,-0.712 -1.687,-1.214 -0.419,-0.5 -0.631,-1.12 -0.631,-1.849 0,-0.656 0.196,-1.271 0.582,-1.853 0.391,-0.583 0.966,-1.043 1.727,-1.389 0.758,-0.346 1.674,-0.522 2.75,-0.522 0.843,0 1.601,0.086 2.269,0.261 0.672,0.175 1.234,0.411 1.682,0.705 0.452,0.297 0.794,0.623 1.027,0.982 0.236,0.358 0.354,0.704 0.354,1.05 0,0.371 -0.126,0.681 -0.379,0.917 -0.249,0.24 -0.607,0.359 -1.067,0.359 -0.334,0 -0.619,-0.094 -0.855,-0.286 -0.233,-0.191 -0.502,-0.476 -0.807,-0.859 -0.245,-0.318 -0.534,-0.575 -0.867,-0.766 -0.335,-0.192 -0.787,-0.285 -1.361,-0.285 -0.587,0 -1.075,0.126 -1.467,0.375 -0.387,0.252 -0.582,0.566 -0.582,0.941 0,0.342 0.143,0.623 0.427,0.839 0.29,0.22 0.673,0.403 1.157,0.545 0.485,0.143 1.153,0.318 2.005,0.526 1.01,0.244 1.837,0.542 2.476,0.884 0.64,0.342 1.124,0.745 1.454,1.213 0.33,0.465 0.497,0.994 0.497,1.593z"/>
  <path id="_33" class="fil9" d="M179.862 223.249l-6.375 0c0.008,0.741 0.159,1.393 0.448,1.96 0.289,0.566 0.676,0.989 1.157,1.274 0.481,0.289 1.014,0.432 1.593,0.432 0.39,0 0.745,-0.045 1.067,-0.138 0.326,-0.09 0.635,-0.232 0.936,-0.428 0.306,-0.196 0.583,-0.403 0.836,-0.627 0.256,-0.224 0.586,-0.526 0.993,-0.909 0.167,-0.142 0.404,-0.216 0.713,-0.216 0.334,0 0.607,0.094 0.815,0.277 0.204,0.18 0.31,0.44 0.31,0.774 0,0.294 -0.119,0.636 -0.347,1.031 -0.232,0.391 -0.578,0.77 -1.047,1.128 -0.464,0.363 -1.046,0.664 -1.751,0.901 -0.705,0.24 -1.515,0.358 -2.428,0.358 -2.093,0 -3.719,-0.599 -4.88,-1.792 -1.16,-1.194 -1.739,-2.811 -1.739,-4.856 0,-0.961 0.142,-1.857 0.428,-2.68 0.285,-0.823 0.704,-1.528 1.25,-2.118 0.55,-0.587 1.226,-1.039 2.029,-1.352 0.802,-0.314 1.694,-0.473 2.672,-0.473 1.275,0 2.366,0.269 3.275,0.806 0.912,0.538 1.592,1.231 2.049,2.086 0.452,0.851 0.68,1.719 0.68,2.603 0,0.819 -0.236,1.352 -0.705,1.597 -0.468,0.24 -1.128,0.362 -1.979,0.362zm-6.375 -1.857l5.906 0c-0.077,-1.112 -0.379,-1.943 -0.9,-2.497 -0.522,-0.55 -1.206,-0.827 -2.057,-0.827 -0.815,0 -1.479,0.281 -2,0.839 -0.521,0.562 -0.839,1.389 -0.949,2.485z"/>
 </g>
</svg>
